# Blender 4.2.0
# www.blender.org
mtllib Draconic Railcannon.mtl
o Body
v 0.000000 -0.684922 0.129694
v -0.152657 -0.379606 0.599531
v -0.152657 -0.379606 -0.340143
v 0.152657 0.114418 0.599531
v 0.152657 0.114418 -0.340143
v 0.000000 0.419734 0.129694
v -0.128594 -0.495760 0.525472
v -0.089729 -0.602434 0.405855
v -0.042864 -0.667220 0.261619
v 0.112222 -0.667220 0.211227
v 0.145190 -0.422974 0.576534
v -0.016371 -0.410030 0.607007
v 0.112222 -0.667220 0.048160
v -0.138715 -0.667219 0.129694
v -0.267311 -0.410029 0.525472
v -0.128594 -0.495760 -0.266084
v -0.089729 -0.602434 -0.146467
v -0.042864 -0.667220 -0.002231
v -0.016371 -0.410030 -0.347619
v 0.145190 -0.422974 -0.317146
v 0.085730 0.006124 0.657400
v 0.000000 -0.132594 0.682022
v -0.085730 -0.271312 0.657400
v 0.240819 0.006124 0.607009
v -0.240819 -0.271313 0.607009
v 0.240819 0.006124 -0.347621
v -0.085730 -0.271312 -0.398012
v 0.000000 -0.132594 -0.422634
v 0.085730 0.006124 -0.398012
v 0.267311 0.144841 0.525472
v 0.016371 0.144841 0.607007
v -0.145190 0.157785 0.576534
v -0.293806 0.144841 0.506223
v -0.293806 0.144841 -0.246835
v -0.145190 0.157785 -0.317146
v 0.016371 0.144841 -0.347619
v 0.267311 0.144841 -0.266085
v 0.042864 0.402031 0.261619
v 0.089729 0.337246 0.405855
v 0.128594 0.230572 0.525472
v 0.290375 0.337244 0.129694
v 0.138715 0.402031 0.129694
v -0.112222 0.402031 0.211227
v -0.234918 0.337246 0.300369
v -0.112222 0.402031 0.048160
v -0.234918 0.337246 -0.040982
v 0.042864 0.402031 -0.002231
v 0.089729 0.337246 -0.146467
v 0.128594 0.230572 -0.266084
v 0.199832 0.361424 -0.015493
v 0.247006 0.267077 -0.160680
v -0.076330 0.361424 -0.105222
v -0.029157 0.267077 -0.250410
v -0.199834 0.267077 -0.194953
v -0.247006 0.361424 0.129694
v -0.076330 0.361424 0.364610
v -0.199834 0.267077 0.454340
v -0.029157 0.267077 0.509798
v 0.199832 0.361424 0.274880
v 0.247006 0.267077 0.420068
v -0.076331 0.020068 -0.395600
v -0.170678 -0.132595 -0.395601
v -0.247009 0.020068 -0.340143
v -0.247010 0.020067 0.599531
v -0.170679 -0.132595 0.654989
v -0.076331 0.020067 0.654988
v 0.170679 -0.132594 -0.395601
v 0.076331 -0.285256 -0.395600
v 0.170679 -0.132594 0.654989
v 0.076331 -0.285256 0.654988
v 0.247010 -0.285256 0.599531
v 0.199834 -0.532265 -0.194953
v 0.076330 -0.626612 -0.105223
v 0.029157 -0.532265 -0.250411
v -0.199833 -0.626612 -0.015492
v -0.199833 -0.626612 0.274881
v 0.029158 -0.532265 0.509798
v 0.076331 -0.626612 0.364610
v 0.199835 -0.532265 0.454341
v 0.124706 -0.142438 -2.813669
v 0.124706 -0.549567 -2.011369
v 0.080615 0.497673 -0.702360
v 0.321916 -1.066155 2.710576
v -0.124706 -0.142438 -2.813669
v -0.124706 -0.549567 -2.011369
v -0.080615 0.497673 -0.702360
v -0.321916 -1.066155 2.710576
v -0.321916 0.452745 0.433626
v -0.156102 1.089417 -0.800505
v 0.156102 1.089417 -0.800505
v 0.321916 0.452745 0.433626
v -0.125247 -0.339608 3.895638
v 0.125247 -0.339608 3.895638
v -0.157098 0.577630 1.143082
v 0.157098 0.577630 1.143082
v 0.321916 -0.350849 1.549842
v -0.321916 -0.350849 1.549842
v -0.080615 0.716580 -0.697054
v 0.080615 0.716580 -0.697054
v 0.156588 -0.132352 3.416429
v -0.156588 -0.132352 3.416429
v 0.321916 0.006803 0.969474
v -0.080615 0.705418 -0.697325
v 0.157098 0.426474 1.460248
v -0.321916 0.006803 0.969474
v 0.080615 0.705418 -0.697325
v -0.157098 0.426474 1.460248
v -0.124394 -0.031749 4.747188
v 0.124394 -0.031749 4.747188
v -0.157572 0.216794 4.475804
v 0.157572 0.216794 4.475804
v -0.157098 0.961906 2.423281
v 0.157098 0.961906 2.423281
v 0.157098 0.788069 2.740447
v -0.157098 0.788069 2.740447
v -0.124706 -0.588539 -1.180485
v 0.124706 -0.143504 -1.470328
v -0.124706 -0.143504 -1.470328
v 0.124706 -0.588539 -1.180485
v 0.210641 0.175612 -4.138753
v 0.210641 -0.862267 -2.093481
v -0.210641 0.175612 -4.138753
v -0.210641 -0.862267 -2.093481
v -0.210641 0.172378 -1.369432
v 0.210641 -0.964211 1.419896
v -0.210641 -0.964211 1.419896
v 0.210641 0.172378 -1.369432
v 0.210641 -0.030099 -3.282478
v 0.210641 -0.660286 -2.040613
v -0.210641 -0.030099 -3.282478
v -0.210641 -0.660286 -2.040613
v -0.210641 -0.031585 -1.409598
v 0.210641 -0.710626 -0.967351
v -0.210641 -0.710626 -0.967351
v 0.210641 -0.031585 -1.409598
v -0.233412 -0.098928 2.661998
v -0.149845 -0.628055 3.886052
v 0.149845 -0.628055 3.886052
v 0.233412 -0.098928 2.661998
v -0.233412 0.520883 4.542083
v -0.149845 -0.132993 5.255800
v 0.149845 -0.132993 5.255800
v 0.233412 0.520883 4.542083
v -0.215152 -0.122017 3.183143
v -0.167662 -0.428802 3.892673
v 0.167662 -0.428802 3.892673
v 0.215152 -0.122017 3.183143
v -0.215832 0.310825 4.496299
v -0.167073 -0.063056 4.904461
v 0.167073 -0.063056 4.904461
v 0.215832 0.310825 4.496299
v 0.321916 0.169144 -0.822809
v -0.321916 0.169144 -0.822809
v 0.321916 0.629281 -0.811657
v -0.321916 0.629281 -0.811657
v 0.321916 0.859349 -0.806081
v -0.321916 0.859349 -0.806081
v -0.000000 0.688451 -0.939667
v 0.000000 1.324511 -0.580380
v 0.006868 0.688113 -0.939667
v 0.069213 1.321110 -0.580380
v 0.013670 0.687104 -0.939667
v 0.137759 1.310942 -0.580380
v 0.020341 0.685433 -0.939667
v 0.204979 1.294105 -0.580380
v 0.026815 0.683117 -0.939667
v 0.270225 1.270760 -0.580380
v 0.033032 0.680177 -0.939667
v 0.332868 1.241132 -0.580380
v 0.038930 0.676641 -0.939667
v 0.392306 1.205506 -0.580380
v 0.044453 0.672545 -0.939667
v 0.447965 1.164226 -0.580380
v 0.049548 0.667927 -0.939667
v 0.499310 1.117689 -0.580380
v 0.054166 0.662832 -0.939667
v 0.545847 1.066344 -0.580380
v 0.058262 0.657309 -0.939667
v 0.587127 1.010685 -0.580380
v 0.061798 0.651411 -0.939667
v 0.622752 0.951247 -0.580380
v 0.064738 0.645194 -0.939667
v 0.652381 0.888604 -0.580380
v 0.067054 0.638720 -0.939667
v 0.675726 0.823358 -0.580380
v 0.068725 0.632049 -0.939667
v 0.692563 0.756138 -0.580380
v 0.069734 0.625247 -0.939667
v 0.702731 0.687592 -0.580380
v 0.070072 0.618379 -0.939667
v 0.706132 0.618379 -0.580380
v 0.069734 0.611511 -0.939667
v 0.702731 0.549166 -0.580380
v 0.068725 0.604709 -0.939667
v 0.692563 0.480620 -0.580380
v 0.067054 0.598038 -0.939667
v 0.675726 0.413400 -0.580380
v 0.064738 0.591564 -0.939667
v 0.652381 0.348154 -0.580380
v 0.061798 0.585347 -0.939667
v 0.622752 0.285511 -0.580380
v 0.058262 0.579449 -0.939667
v 0.587127 0.226073 -0.580380
v 0.054166 0.573926 -0.939667
v 0.545847 0.170414 -0.580380
v 0.049548 0.568831 -0.939667
v 0.499310 0.119069 -0.580380
v 0.044453 0.564213 -0.939667
v 0.447965 0.072532 -0.580380
v 0.038930 0.560116 -0.939667
v 0.392306 0.031252 -0.580380
v 0.033032 0.556581 -0.939667
v 0.332868 -0.004373 -0.580380
v 0.026815 0.553641 -0.939667
v 0.270225 -0.034002 -0.580380
v 0.020341 0.551325 -0.939667
v 0.204979 -0.057347 -0.580380
v 0.013670 0.549654 -0.939667
v 0.137759 -0.074184 -0.580380
v 0.006868 0.548645 -0.939667
v 0.069213 -0.084352 -0.580380
v 0.000000 0.548307 -0.939667
v 0.000000 -0.087753 -0.580380
v -0.006868 0.548645 -0.939667
v -0.069213 -0.084352 -0.580380
v -0.013670 0.549654 -0.939667
v -0.137759 -0.074184 -0.580380
v -0.020341 0.551325 -0.939667
v -0.204979 -0.057347 -0.580380
v -0.026815 0.553641 -0.939667
v -0.270225 -0.034002 -0.580380
v -0.033032 0.556581 -0.939667
v -0.332868 -0.004373 -0.580380
v -0.038930 0.560117 -0.939667
v -0.392306 0.031252 -0.580380
v -0.044453 0.564213 -0.939667
v -0.447965 0.072532 -0.580380
v -0.049548 0.568831 -0.939667
v -0.499310 0.119069 -0.580380
v -0.054166 0.573926 -0.939667
v -0.545847 0.170414 -0.580380
v -0.058262 0.579449 -0.939667
v -0.587127 0.226073 -0.580380
v -0.061798 0.585347 -0.939667
v -0.622752 0.285511 -0.580380
v -0.064738 0.591564 -0.939667
v -0.652381 0.348154 -0.580380
v -0.067054 0.598038 -0.939667
v -0.675726 0.413400 -0.580380
v -0.068725 0.604709 -0.939667
v -0.692563 0.480620 -0.580380
v -0.069734 0.611511 -0.939667
v -0.702731 0.549166 -0.580380
v -0.070072 0.618379 -0.939667
v -0.706132 0.618379 -0.580380
v -0.069734 0.625247 -0.939667
v -0.702731 0.687592 -0.580380
v -0.068725 0.632049 -0.939667
v -0.692563 0.756138 -0.580380
v -0.067054 0.638720 -0.939667
v -0.675726 0.823358 -0.580380
v -0.064738 0.645194 -0.939667
v -0.652381 0.888604 -0.580380
v -0.061798 0.651411 -0.939667
v -0.622752 0.951247 -0.580380
v -0.058262 0.657309 -0.939667
v -0.587127 1.010685 -0.580380
v -0.054166 0.662832 -0.939667
v -0.545847 1.066344 -0.580380
v -0.049548 0.667927 -0.939667
v -0.499310 1.117689 -0.580380
v -0.044453 0.672545 -0.939667
v -0.447965 1.164226 -0.580380
v -0.038930 0.676641 -0.939667
v -0.392306 1.205506 -0.580380
v -0.033032 0.680177 -0.939667
v -0.332868 1.241132 -0.580380
v -0.026815 0.683117 -0.939667
v -0.270225 1.270760 -0.580380
v -0.020341 0.685433 -0.939667
v -0.204979 1.294105 -0.580380
v -0.013670 0.687104 -0.939667
v -0.137759 1.310942 -0.580380
v -0.006868 0.688113 -0.939667
v -0.069213 1.321110 -0.580380
v 0.000000 1.324511 -0.910360
v 0.069213 1.321110 -0.910360
v 0.137759 1.310942 -0.910360
v 0.204979 1.294105 -0.910360
v 0.270225 1.270760 -0.910360
v 0.332868 1.241132 -0.910360
v 0.392306 1.205506 -0.910360
v 0.447965 1.164226 -0.910360
v 0.499310 1.117689 -0.910360
v 0.545847 1.066344 -0.910360
v 0.587127 1.010685 -0.910360
v 0.622752 0.951247 -0.910360
v 0.652381 0.888604 -0.910360
v 0.675726 0.823358 -0.910360
v 0.692563 0.756138 -0.910360
v 0.702731 0.687592 -0.910360
v 0.706132 0.618379 -0.910360
v 0.702731 0.549166 -0.910360
v 0.692563 0.480620 -0.910360
v 0.675726 0.413400 -0.910360
v 0.652381 0.348154 -0.910360
v 0.622752 0.285511 -0.910360
v 0.587127 0.226073 -0.910360
v 0.545847 0.170414 -0.910360
v 0.499310 0.119069 -0.910360
v 0.447965 0.072532 -0.910360
v 0.392306 0.031252 -0.910360
v 0.332868 -0.004373 -0.910360
v 0.270225 -0.034002 -0.910360
v 0.204979 -0.057347 -0.910360
v 0.137759 -0.074184 -0.910360
v 0.069213 -0.084352 -0.910360
v 0.000000 -0.087753 -0.910360
v -0.069213 -0.084352 -0.910360
v -0.137759 -0.074184 -0.910360
v -0.204979 -0.057347 -0.910360
v -0.270225 -0.034002 -0.910360
v -0.332868 -0.004373 -0.910360
v -0.392306 0.031252 -0.910360
v -0.447965 0.072532 -0.910360
v -0.499310 0.119069 -0.910360
v -0.545847 0.170414 -0.910360
v -0.587127 0.226073 -0.910360
v -0.622752 0.285511 -0.910360
v -0.652381 0.348154 -0.910360
v -0.675726 0.413400 -0.910360
v -0.692563 0.480620 -0.910360
v -0.702731 0.549166 -0.910360
v -0.706132 0.618379 -0.910360
v -0.702731 0.687592 -0.910360
v -0.692563 0.756138 -0.910360
v -0.675726 0.823358 -0.910360
v -0.652381 0.888604 -0.910360
v -0.622752 0.951247 -0.910360
v -0.587127 1.010685 -0.910360
v -0.545847 1.066344 -0.910360
v -0.499310 1.117689 -0.910360
v -0.447965 1.164226 -0.910360
v -0.392306 1.205506 -0.910360
v -0.332868 1.241132 -0.910360
v -0.270225 1.270760 -0.910360
v -0.204979 1.294105 -0.910360
v -0.137759 1.310942 -0.910360
v -0.069213 1.321110 -0.910360
v 0.000000 0.936894 -0.910360
v 0.031220 0.935360 -0.910360
v 0.062139 0.930774 -0.910360
v 0.092460 0.923179 -0.910360
v 0.121890 0.912648 -0.910360
v 0.150147 0.899284 -0.910360
v 0.176957 0.883214 -0.910360
v 0.202064 0.864594 -0.910360
v 0.225224 0.843603 -0.910360
v 0.246215 0.820443 -0.910360
v 0.264835 0.795336 -0.910360
v 0.280905 0.768526 -0.910360
v 0.294269 0.740269 -0.910360
v 0.304800 0.710839 -0.910360
v 0.312395 0.680518 -0.910360
v 0.316981 0.649599 -0.910360
v 0.318515 0.618379 -0.910360
v 0.316981 0.587159 -0.910360
v 0.312395 0.556240 -0.910360
v 0.304800 0.525919 -0.910360
v 0.294269 0.496489 -0.910360
v 0.280905 0.468232 -0.910360
v 0.264835 0.441422 -0.910360
v 0.246215 0.416315 -0.910360
v 0.225224 0.393155 -0.910360
v 0.202064 0.372164 -0.910360
v 0.176957 0.353544 -0.910360
v 0.150147 0.337474 -0.910360
v 0.121890 0.324110 -0.910360
v 0.092460 0.313579 -0.910360
v 0.062139 0.305984 -0.910360
v 0.031220 0.301398 -0.910360
v 0.000000 0.299864 -0.910360
v -0.031220 0.301398 -0.910360
v -0.062139 0.305984 -0.910360
v -0.092460 0.313579 -0.910360
v -0.121890 0.324110 -0.910360
v -0.150147 0.337474 -0.910360
v -0.176957 0.353544 -0.910360
v -0.202064 0.372164 -0.910360
v -0.225224 0.393155 -0.910360
v -0.246215 0.416315 -0.910360
v -0.264835 0.441422 -0.910360
v -0.280905 0.468232 -0.910360
v -0.294269 0.496489 -0.910360
v -0.304800 0.525919 -0.910360
v -0.312395 0.556240 -0.910360
v -0.316981 0.587159 -0.910360
v -0.318515 0.618379 -0.910360
v -0.316981 0.649599 -0.910360
v -0.312395 0.680518 -0.910360
v -0.304800 0.710839 -0.910360
v -0.294269 0.740269 -0.910360
v -0.280905 0.768526 -0.910360
v -0.264835 0.795336 -0.910360
v -0.246215 0.820443 -0.910360
v -0.225224 0.843603 -0.910360
v -0.202064 0.864594 -0.910360
v -0.176957 0.883214 -0.910360
v -0.150147 0.899284 -0.910360
v -0.121890 0.912648 -0.910360
v -0.092460 0.923179 -0.910360
v -0.062139 0.930774 -0.910360
v -0.031220 0.935360 -0.910360
v 0.000000 0.877575 -0.840013
v 0.025406 0.876327 -0.840013
v 0.050567 0.872595 -0.840013
v 0.075241 0.866414 -0.840013
v 0.099190 0.857845 -0.840013
v 0.122184 0.846970 -0.840013
v 0.144002 0.833893 -0.840013
v 0.164432 0.818740 -0.840013
v 0.183279 0.801658 -0.840013
v 0.200361 0.782811 -0.840013
v 0.215514 0.762381 -0.840013
v 0.228591 0.740563 -0.840013
v 0.239466 0.717569 -0.840013
v 0.248035 0.693620 -0.840013
v 0.254216 0.668946 -0.840013
v 0.257948 0.643785 -0.840013
v 0.259196 0.618379 -0.840013
v 0.257948 0.592973 -0.840013
v 0.254216 0.567812 -0.840013
v 0.248035 0.543138 -0.840013
v 0.239466 0.519189 -0.840013
v 0.228591 0.496195 -0.840013
v 0.215514 0.474377 -0.840013
v 0.200362 0.453947 -0.840013
v 0.183279 0.435100 -0.840013
v 0.164432 0.418018 -0.840013
v 0.144002 0.402865 -0.840013
v 0.122184 0.389788 -0.840013
v 0.099190 0.378913 -0.840013
v 0.075241 0.370344 -0.840013
v 0.050567 0.364163 -0.840013
v 0.025406 0.360431 -0.840013
v 0.000000 0.359183 -0.840013
v -0.025406 0.360431 -0.840013
v -0.050567 0.364163 -0.840013
v -0.075241 0.370344 -0.840013
v -0.099190 0.378913 -0.840013
v -0.122184 0.389788 -0.840013
v -0.144002 0.402865 -0.840013
v -0.164432 0.418017 -0.840013
v -0.183279 0.435100 -0.840013
v -0.200361 0.453947 -0.840013
v -0.215514 0.474377 -0.840013
v -0.228591 0.496195 -0.840013
v -0.239466 0.519189 -0.840013
v -0.248035 0.543138 -0.840013
v -0.254216 0.567812 -0.840013
v -0.257948 0.592973 -0.840013
v -0.259196 0.618379 -0.840013
v -0.257948 0.643785 -0.840013
v -0.254216 0.668946 -0.840013
v -0.248035 0.693620 -0.840013
v -0.239466 0.717569 -0.840013
v -0.228591 0.740563 -0.840013
v -0.215514 0.762381 -0.840013
v -0.200362 0.782811 -0.840013
v -0.183279 0.801658 -0.840013
v -0.164432 0.818740 -0.840013
v -0.144002 0.833893 -0.840013
v -0.122184 0.846970 -0.840013
v -0.099190 0.857845 -0.840013
v -0.075241 0.866414 -0.840013
v -0.050567 0.872595 -0.840013
v -0.025406 0.876327 -0.840013
v -0.000000 0.714583 -0.939667
v 0.009430 0.714120 -0.939667
v 0.018769 0.712735 -0.939667
v 0.027927 0.710441 -0.939667
v 0.036816 0.707260 -0.939667
v 0.045350 0.703224 -0.939667
v 0.053448 0.698370 -0.939667
v 0.061031 0.692746 -0.939667
v 0.068027 0.686406 -0.939667
v 0.074367 0.679410 -0.939667
v 0.079991 0.671827 -0.939667
v 0.084845 0.663730 -0.939667
v 0.088881 0.655195 -0.939667
v 0.092062 0.646306 -0.939667
v 0.094356 0.637148 -0.939667
v 0.095741 0.627809 -0.939667
v 0.096204 0.618379 -0.939667
v 0.095741 0.608949 -0.939667
v 0.094356 0.599610 -0.939667
v 0.092062 0.590452 -0.939667
v 0.088881 0.581563 -0.939667
v 0.084845 0.573029 -0.939667
v 0.079991 0.564930 -0.939667
v 0.074367 0.557348 -0.939667
v 0.068027 0.550352 -0.939667
v 0.061031 0.544012 -0.939667
v 0.053448 0.538388 -0.939667
v 0.045351 0.533534 -0.939667
v 0.036816 0.529498 -0.939667
v 0.027927 0.526317 -0.939667
v 0.018769 0.524023 -0.939667
v 0.009430 0.522638 -0.939667
v -0.000000 0.522174 -0.939667
v -0.009430 0.522638 -0.939667
v -0.018769 0.524023 -0.939667
v -0.027927 0.526317 -0.939667
v -0.036816 0.529498 -0.939667
v -0.045350 0.533534 -0.939667
v -0.053448 0.538388 -0.939667
v -0.061031 0.544012 -0.939667
v -0.068027 0.550352 -0.939667
v -0.074367 0.557348 -0.939667
v -0.079991 0.564931 -0.939667
v -0.084845 0.573028 -0.939667
v -0.088881 0.581563 -0.939667
v -0.092062 0.590452 -0.939667
v -0.094356 0.599610 -0.939667
v -0.095741 0.608949 -0.939667
v -0.096204 0.618379 -0.939667
v -0.095741 0.627809 -0.939667
v -0.094356 0.637148 -0.939667
v -0.092062 0.646306 -0.939667
v -0.088881 0.655195 -0.939667
v -0.084845 0.663729 -0.939667
v -0.079991 0.671827 -0.939667
v -0.074367 0.679410 -0.939667
v -0.068027 0.686406 -0.939667
v -0.061031 0.692746 -0.939667
v -0.053448 0.698370 -0.939667
v -0.045351 0.703224 -0.939667
v -0.036816 0.707260 -0.939667
v -0.027927 0.710441 -0.939667
v -0.018769 0.712735 -0.939667
v -0.009430 0.714120 -0.939667
v 0.000000 0.688451 -0.703120
v 0.006868 0.688113 -0.703120
v 0.013670 0.687104 -0.703120
v 0.020341 0.685433 -0.703120
v 0.026815 0.683117 -0.703120
v 0.033032 0.680177 -0.703120
v 0.038930 0.676641 -0.703120
v 0.044453 0.672545 -0.703120
v 0.049548 0.667927 -0.703120
v 0.054166 0.662832 -0.703120
v 0.058263 0.657309 -0.703120
v 0.061798 0.651411 -0.703120
v 0.064738 0.645194 -0.703120
v 0.067054 0.638720 -0.703120
v 0.068725 0.632049 -0.703120
v 0.069734 0.625247 -0.703120
v 0.070072 0.618379 -0.703120
v 0.069734 0.611511 -0.703120
v 0.068725 0.604709 -0.703120
v 0.067054 0.598038 -0.703120
v 0.064738 0.591564 -0.703120
v 0.061798 0.585347 -0.703120
v 0.058262 0.579449 -0.703120
v 0.054166 0.573926 -0.703120
v 0.049548 0.568831 -0.703120
v 0.044453 0.564213 -0.703120
v 0.038930 0.560116 -0.703120
v 0.033032 0.556581 -0.703120
v 0.026815 0.553641 -0.703120
v 0.020341 0.551324 -0.703120
v 0.013670 0.549654 -0.703120
v 0.006868 0.548645 -0.703120
v 0.000000 0.548307 -0.703120
v -0.006868 0.548645 -0.703120
v -0.013670 0.549654 -0.703120
v -0.020341 0.551325 -0.703120
v -0.026815 0.553641 -0.703120
v -0.033032 0.556581 -0.703120
v -0.038930 0.560117 -0.703120
v -0.044453 0.564213 -0.703120
v -0.049548 0.568831 -0.703120
v -0.054166 0.573926 -0.703120
v -0.058262 0.579449 -0.703120
v -0.061798 0.585347 -0.703120
v -0.064738 0.591564 -0.703120
v -0.067054 0.598038 -0.703120
v -0.068725 0.604708 -0.703120
v -0.069734 0.611511 -0.703120
v -0.070072 0.618379 -0.703120
v -0.069734 0.625247 -0.703120
v -0.068725 0.632049 -0.703120
v -0.067054 0.638720 -0.703120
v -0.064738 0.645194 -0.703120
v -0.061798 0.651411 -0.703120
v -0.058262 0.657309 -0.703120
v -0.054166 0.662832 -0.703120
v -0.049548 0.667927 -0.703120
v -0.044453 0.672545 -0.703120
v -0.038930 0.676641 -0.703120
v -0.033032 0.680177 -0.703120
v -0.026815 0.683117 -0.703120
v -0.020341 0.685433 -0.703120
v -0.013670 0.687104 -0.703120
v -0.006868 0.688113 -0.703120
v -0.071254 0.859688 2.408992
v -0.071254 0.100174 3.417863
v -0.071254 0.745837 2.323281
v -0.071254 -0.013678 3.332152
v 0.071254 0.859688 2.408992
v 0.071254 0.100174 3.417863
v 0.071254 0.745837 2.323281
v 0.071254 -0.013678 3.332152
v -0.741891 0.902369 -0.510914
v -0.741891 1.585002 0.107819
v -0.741891 1.055293 -0.679631
v -0.741891 1.737926 -0.060898
v 0.741891 0.902369 -0.510914
v 0.741891 1.585002 0.107819
v 0.741891 1.055293 -0.679631
v 0.741891 1.737926 -0.060898
v 0.603409 1.055293 -0.679631
v -0.603409 1.055293 -0.679631
v -0.589269 1.737926 -0.060898
v 0.589269 1.737926 -0.060898
v -0.603409 0.902369 -0.510914
v 0.603409 0.902369 -0.510914
v 0.589269 1.585002 0.107819
v -0.589269 1.585002 0.107819
v -0.741891 1.470326 0.003877
v -0.741891 1.623250 -0.164840
v 0.741891 1.623250 -0.164840
v 0.741891 1.470326 0.003877
v 0.603409 1.449761 -0.014762
v -0.603409 1.449761 -0.014762
v -0.603409 1.602685 -0.183479
v 0.603409 1.602685 -0.183479
v -0.668606 0.813207 -0.899056
v -0.668606 0.660283 -0.730339
v -0.530124 0.813207 -0.899056
v 0.668606 0.660283 -0.730339
v 0.668606 0.813207 -0.899056
v 0.530124 0.660283 -0.730339
v 0.530124 0.813207 -0.899056
v -0.530124 0.660283 -0.730339
v -0.474570 -0.962285 1.133353
v -0.266186 -0.402072 0.981264
v -0.474570 -1.043713 0.841758
v -0.266186 -0.483499 0.689669
v 0.474570 -0.962285 1.133353
v 0.266186 -0.402072 0.981264
v 0.474570 -1.043713 0.841758
v 0.266186 -0.483499 0.689669
v 0.190918 -1.141788 0.869145
v -0.190918 -1.141788 0.869145
v 0.017465 -0.581574 0.717056
v -0.017465 -0.581574 0.717056
v -0.190918 -1.060361 1.160740
v 0.190918 -1.060361 1.160740
v -0.017465 -0.500147 1.008651
v 0.017465 -0.500147 1.008651
v -0.474570 -1.165850 1.387674
v -0.266186 -0.605636 1.235585
v 0.266186 -0.605636 1.235585
v 0.474570 -1.165850 1.387674
v 0.190918 -1.263925 1.415061
v 0.017465 -0.703711 1.262972
v -0.190918 -1.263925 1.415061
v -0.017465 -0.703711 1.262972
v 0.017465 -0.626290 1.538115
v -0.266186 -0.528215 1.510728
v 0.190918 -1.186504 1.690205
v 0.474570 -1.088429 1.662817
v 0.266186 -0.528215 1.510728
v -0.474570 -1.088429 1.662817
v -0.190918 -1.186504 1.690205
v -0.017465 -0.626290 1.538115
v 0.017465 -0.752566 1.808727
v -0.266186 -0.654491 1.781340
v 0.190918 -1.312780 1.960816
v 0.474570 -1.214705 1.933429
v 0.266186 -0.654491 1.781340
v -0.474570 -1.214705 1.933429
v -0.190918 -1.312780 1.960816
v -0.017465 -0.752566 1.808727
v 0.017465 -0.684262 2.083185
v -0.266186 -0.586187 2.055798
v 0.190918 -1.244476 2.235275
v 0.474570 -1.146401 2.207887
v 0.266186 -0.586187 2.055798
v -0.474570 -1.146401 2.207887
v -0.190918 -1.244476 2.235275
v -0.017465 -0.684262 2.083185
v -0.025604 0.595982 2.523342
v -0.025604 0.695994 2.402261
v -0.025604 0.576913 2.448173
v -0.025604 0.678040 2.339876
v 0.025604 0.595982 2.523342
v 0.025604 0.695994 2.402261
v 0.025604 0.576913 2.448173
v 0.025604 0.678040 2.339876
v -0.025604 0.645988 2.462801
v -0.025604 0.638575 2.406267
v 0.025604 0.638575 2.406267
v 0.025604 0.645988 2.462801
v -0.025604 0.670991 2.432531
v -0.025604 0.660131 2.377558
v 0.025604 0.660131 2.377558
v 0.025604 0.670991 2.432531
v -0.025604 0.611209 2.431114
v 0.025604 0.611209 2.431114
v 0.025604 0.620985 2.493072
v -0.025604 0.620985 2.493072
v 0.321916 0.151107 -0.208177
v 0.321916 0.205566 -0.152682
v 0.321916 0.267076 -0.057577
v 0.321916 0.285973 -0.015493
v -0.321916 0.201064 -0.160316
v -0.321916 0.234508 -0.123538
v -0.321916 0.246039 -0.104189
v 0.321916 0.301615 0.055972
v 0.321916 0.310493 0.129694
v 0.321916 0.290414 0.004799
v -0.321916 0.292224 0.010954
v -0.321916 0.304199 0.075270
v -0.321916 0.290079 0.005606
v -0.321916 0.304199 0.184118
v -0.321916 0.292224 0.248433
v 0.321916 0.301615 0.203415
v 0.321916 0.205566 0.412070
v 0.321916 0.267076 0.316965
v 0.321916 0.285973 0.274881
v -0.321916 0.234508 0.382926
v -0.321916 0.246039 0.363577
v -0.321916 0.201064 0.419704
v 0.321916 0.151107 0.467565
v -0.267377 -0.132594 -0.346331
v -0.297952 -0.080098 -0.325056
v 0.321916 0.078822 -0.257792
v 0.321916 0.014843 -0.286837
v 0.295596 -0.084517 -0.327710
v 0.321916 -0.015883 -0.293567
v -0.321916 0.099357 -0.246835
v -0.321916 0.012186 -0.287405
v -0.321916 -0.015886 -0.293557
v -0.321916 0.136762 -0.223957
v 0.321916 0.078822 0.517180
v 0.321916 0.014843 0.546224
v 0.321916 0.077504 0.517778
v -0.321916 0.012186 0.546792
v -0.321916 0.078216 0.516062
v -0.321916 0.099357 0.506223
v -0.321916 0.136762 0.483345
v 0.267377 -0.132594 -0.346331
v 0.321916 -0.277375 0.546792
v 0.321916 -0.137970 0.577346
v 0.321916 -0.128070 0.577530
v 0.321916 -0.132594 0.577929
v 0.210641 -0.285256 -0.351960
v 0.210641 -0.238384 -0.361373
v 0.217100 -0.225437 -0.361874
v -0.217163 -0.224528 -0.363803
v -0.321916 -0.127218 0.577346
v -0.321916 -0.137119 0.577530
v -0.321916 -0.280032 0.546225
v -0.321916 -0.132594 0.577930
v 0.210641 -0.334448 -0.331929
v -0.210641 -0.308382 -0.345062
v -0.210641 -0.271312 -0.357427
v -0.210641 -0.237489 -0.363569
v -0.210641 -0.394992 -0.302690
v 0.210641 -0.417273 -0.286181
v -0.210641 -0.445053 -0.266084
v 0.289762 -0.399246 0.514286
v 0.321916 -0.305159 0.533862
v 0.285632 -0.410741 0.510090
v -0.321916 -0.305447 0.534687
v -0.299383 -0.371253 0.520602
v -0.284858 -0.412043 0.506864
v 0.210641 -0.518208 -0.200919
v -0.210641 -0.548490 -0.157394
v -0.210641 -0.521054 -0.193051
v 0.210641 -0.529382 -0.188632
v 0.210641 -0.553879 -0.147527
v 0.210641 -0.606135 -0.050816
v -0.210641 -0.604997 -0.048755
v -0.210641 -0.619933 -0.015492
v 0.210641 -0.637569 0.107695
v 0.210641 -0.615253 -0.023344
v -0.210641 -0.636494 0.129694
v -0.210641 -0.623726 0.001838
v 0.210641 -0.637569 0.151693
v -0.210641 -0.623726 0.257551
v -0.210641 -0.619932 0.274881
v 0.210641 -0.615253 0.282731
v 0.210641 -0.606136 0.310204
v 0.210641 -0.553877 0.406917
v 0.210641 -0.552432 0.409341
v 0.230603 -0.524056 0.436342
v 0.277821 -0.430822 0.497397
v -0.215323 -0.546400 0.417205
v -0.210641 -0.552400 0.409263
v -0.210641 -0.604997 0.308144
v -0.229153 -0.526761 0.435960
v -0.254665 -0.486160 0.459824
vn -0.0000 1.0000 -0.0000
vn 0.0806 0.9654 -0.2480
vn -0.2110 0.9654 -0.1533
vn 0.2608 0.9654 -0.0000
vn 0.0806 0.9654 0.2480
vn -0.2110 0.9654 0.1533
vn 0.2764 0.4472 -0.8506
vn 0.1502 0.2431 -0.9583
vn 0.0198 0.5038 -0.8636
vn 0.2764 0.4472 0.8506
vn 0.3259 0.3266 0.8872
vn 0.3715 0.5016 0.7812
vn 0.4417 0.2431 -0.8636
vn 0.1502 0.2431 0.9583
vn 0.3000 0.2400 0.9233
vn -0.2764 -0.4472 -0.8506
vn -0.2308 -0.6650 -0.7103
vn -0.4915 -0.5038 -0.7103
vn -0.2764 -0.4472 0.8506
vn -0.2308 -0.6650 0.7103
vn -0.0198 -0.5038 0.8636
vn -0.2608 -0.9654 -0.0000
vn -0.0000 -1.0000 -0.0000
vn -0.0806 -0.9654 0.2480
vn -0.5257 -0.8507 -0.0000
vn -0.3682 -0.8904 0.2675
vn -0.1625 -0.8507 0.5000
vn -0.5047 -0.8167 0.2799
vn -0.5168 -0.8363 0.1830
vn -0.5374 -0.8262 0.1694
vn -0.4496 -0.7276 0.5182
vn -0.4915 -0.5038 0.7103
vn 0.2110 -0.9654 0.1533
vn 0.1406 -0.8904 0.4329
vn 0.0592 -0.7276 0.6835
vn 0.4253 -0.8507 0.3090
vn 0.3539 -0.7276 0.5878
vn 0.4975 -0.7619 0.4147
vn 0.4866 -0.7110 0.5076
vn 0.2629 -0.5257 0.8090
vn 0.5237 -0.5038 0.6870
vn 0.5206 -0.6287 0.5777
vn 0.6309 -0.4885 0.6027
vn 0.2110 -0.9654 -0.1533
vn 0.4551 -0.8904 -0.0000
vn 0.4253 -0.8507 -0.3090
vn 0.5539 -0.8258 0.1059
vn 0.5471 -0.8089 0.2153
vn 0.5471 -0.8089 -0.2153
vn 0.5539 -0.8258 -0.1059
vn -0.0806 -0.9654 -0.2480
vn 0.1406 -0.8904 -0.4329
vn -0.1625 -0.8507 -0.5000
vn 0.3539 -0.7276 -0.5878
vn 0.0592 -0.7276 -0.6835
vn 0.5237 -0.5038 -0.6870
vn 0.2629 -0.5257 -0.8090
vn -0.0198 -0.5038 -0.8636
vn -0.3682 -0.8904 -0.2675
vn -0.4496 -0.7276 -0.5182
vn -0.5047 -0.8167 -0.2799
vn -0.5202 -0.7658 -0.3780
vn -0.5374 -0.8262 -0.1694
vn -0.5722 -0.6284 -0.5270
vn -0.5792 -0.5461 -0.6053
vn -0.4417 -0.2431 0.8636
vn -0.1502 -0.2431 0.9583
vn -0.0000 -0.0000 1.0000
vn 0.1461 -0.2724 0.9510
vn 0.3090 -0.0089 0.9510
vn 0.4408 -0.2724 0.8553
vn 0.3543 0.1406 0.9245
vn 0.3045 0.1702 0.9372
vn 0.4948 -0.1220 0.8604
vn 0.4536 -0.0396 0.8903
vn 0.5840 -0.3609 0.7271
vn 0.5733 -0.2680 0.7743
vn 0.4803 0.0988 -0.8715
vn 0.4540 -0.0092 -0.8910
vn 0.3090 -0.0089 -0.9510
vn 0.4408 -0.2724 -0.8553
vn 0.1461 -0.2724 -0.9510
vn -0.0000 -0.0000 -1.0000
vn -0.1502 -0.2431 -0.9583
vn -0.4417 -0.2431 -0.8636
vn -0.5667 -0.3767 -0.7328
vn -0.5379 -0.3485 -0.7676
vn -0.5570 -0.2771 -0.7829
vn -0.3090 0.0089 0.9510
vn -0.1461 0.2724 0.9510
vn -0.2629 0.5257 0.8090
vn 0.0198 0.5038 0.8636
vn 0.4915 0.5038 -0.7103
vn -0.3090 0.0089 -0.9510
vn -0.1461 0.2724 -0.9510
vn -0.4803 -0.0988 -0.8715
vn -0.4540 0.0092 -0.8910
vn -0.4408 0.2724 -0.8553
vn -0.4762 0.1108 -0.8723
vn -0.5733 0.2680 -0.7743
vn -0.2629 0.5257 -0.8090
vn -0.4512 0.4198 -0.7876
vn -0.4035 0.5114 -0.7587
vn -0.5638 0.3485 -0.7488
vn -0.2951 0.9189 0.2617
vn -0.2834 0.8865 0.3659
vn -0.1406 0.8904 0.4329
vn -0.3539 0.7276 0.5878
vn -0.4149 0.6068 0.6780
vn -0.4002 0.5284 0.7487
vn -0.0592 0.7276 0.6835
vn 0.1625 0.8507 0.5000
vn 0.2308 0.6650 0.7103
vn 0.3624 0.5863 0.7245
vn 0.3179 0.7268 0.6088
vn 0.3067 0.7938 0.5252
vn 0.3682 0.8904 0.2675
vn 0.3495 0.8334 0.4280
vn 0.5047 0.8167 0.2799
vn 0.4181 0.9016 0.1106
vn 0.3928 0.9196 -0.0000
vn 0.4181 0.9016 -0.1106
vn 0.3682 0.8904 -0.2675
vn 0.5047 0.8167 -0.2799
vn 0.3495 0.8334 -0.4280
vn 0.1625 0.8507 -0.5000
vn 0.3338 0.8363 -0.4350
vn 0.2993 0.7818 -0.5470
vn 0.3358 0.7072 -0.6222
vn 0.2308 0.6650 -0.7103
vn -0.0592 0.7276 -0.6835
vn -0.1406 0.8904 -0.4329
vn -0.3539 0.7276 -0.5878
vn -0.3965 0.5998 -0.6950
vn -0.2834 0.8865 -0.3659
vn -0.2951 0.9189 -0.2617
vn -0.3224 0.8315 -0.4524
vn -0.4932 0.6917 -0.5276
vn -0.0000 1.0000 0.0059
vn -0.0000 -0.9370 0.3492
vn -0.0000 0.9989 0.0469
vn -0.0000 -0.9969 -0.0787
vn 0.9421 -0.3157 -0.1134
vn -0.0000 -0.8918 -0.4525
vn -0.0000 0.8887 0.4585
vn -0.0000 0.0242 -0.9997
vn -0.7990 0.5713 0.1874
vn -1.0000 -0.0000 -0.0000
vn -0.0000 -0.9623 0.2718
vn -0.9919 0.0950 0.0843
vn -0.0000 0.9849 -0.1734
vn 0.9603 0.2286 0.1600
vn 0.9919 0.0950 0.0843
vn -0.9747 0.2141 0.0643
vn -0.0000 -0.9405 0.3399
vn 1.0000 -0.0000 -0.0000
vn -0.9603 0.2286 0.1600
vn 0.9747 0.2141 0.0643
vn -0.0000 0.9163 0.4006
vn -0.0000 -0.0242 0.9997
vn -0.0000 0.7373 0.6755
vn -0.0000 0.9497 -0.3131
vn -0.0000 0.9178 0.3970
vn -0.0000 -0.9497 0.3130
vn -0.0000 0.8769 0.4806
vn -0.0000 0.9578 -0.2875
vn -0.0000 -0.5457 -0.8380
vn -0.0000 -0.9996 -0.0290
vn -0.9420 -0.3159 -0.1130
vn -0.0000 1.0000 0.0012
vn 0.7933 0.5429 0.2755
vn -0.7933 0.5429 0.2755
vn -0.7933 -0.6088 -0.0005
vn 0.7933 0.6082 0.0285
vn -0.7933 0.6082 0.0285
vn 0.7933 -0.6088 -0.0005
vn 0.7933 -0.3323 -0.5102
vn -0.7933 -0.3323 -0.5102
vn -0.0000 0.8918 0.4525
vn -0.0000 -1.0000 -0.0008
vn 0.7990 0.5713 0.1874
vn -0.9958 -0.0870 0.0299
vn 0.9958 -0.0870 0.0299
vn -0.9951 -0.0932 0.0320
vn 0.9951 -0.0932 0.0320
vn 0.9956 -0.0884 0.0322
vn -0.9956 -0.0884 0.0322
vn -0.9953 -0.0918 0.0300
vn 0.9953 -0.0918 0.0300
vn -0.8787 0.4141 0.2374
vn 0.8787 0.4141 0.2374
vn -0.8345 -0.4528 -0.3141
vn 0.8345 -0.4528 -0.3141
vn 0.8895 0.4300 -0.1547
vn -0.8895 0.4300 -0.1547
vn -0.8171 -0.5477 0.1800
vn 0.8171 -0.5477 0.1800
vn -0.0000 0.9404 -0.3400
vn -0.0000 -0.7375 -0.6754
vn -0.0000 0.3442 -0.9389
vn -0.4224 0.0220 -0.9061
vn 0.4224 0.0220 -0.9061
vn -0.0000 -0.5770 -0.8167
vn 0.0980 0.9952 -0.0000
vn 0.1951 0.9808 -0.0000
vn 0.2903 0.9569 -0.0000
vn 0.3827 0.9239 -0.0000
vn 0.4714 0.8819 -0.0000
vn 0.5556 0.8315 -0.0000
vn 0.6344 0.7730 -0.0000
vn 0.7071 0.7071 -0.0000
vn 0.7730 0.6344 -0.0000
vn 0.8315 0.5556 -0.0000
vn 0.8819 0.4714 -0.0000
vn 0.9239 0.3827 -0.0000
vn 0.9569 0.2903 -0.0000
vn 0.9808 0.1951 -0.0000
vn 0.9952 0.0980 -0.0000
vn 0.9952 -0.0980 -0.0000
vn 0.9808 -0.1951 -0.0000
vn 0.9569 -0.2903 -0.0000
vn 0.9239 -0.3827 -0.0000
vn 0.8819 -0.4714 -0.0000
vn 0.8315 -0.5556 -0.0000
vn 0.7730 -0.6344 -0.0000
vn 0.7071 -0.7071 -0.0000
vn 0.6344 -0.7730 -0.0000
vn 0.5556 -0.8315 -0.0000
vn 0.4714 -0.8819 -0.0000
vn 0.3827 -0.9239 -0.0000
vn 0.2903 -0.9569 -0.0000
vn 0.1951 -0.9808 -0.0000
vn 0.0980 -0.9952 -0.0000
vn -0.0980 -0.9952 -0.0000
vn -0.1951 -0.9808 -0.0000
vn -0.2903 -0.9569 -0.0000
vn -0.3827 -0.9239 -0.0000
vn -0.4714 -0.8819 -0.0000
vn -0.5556 -0.8315 -0.0000
vn -0.6344 -0.7730 -0.0000
vn -0.7071 -0.7071 -0.0000
vn -0.7730 -0.6344 -0.0000
vn -0.8315 -0.5556 -0.0000
vn -0.8819 -0.4714 -0.0000
vn -0.9239 -0.3827 -0.0000
vn -0.9569 -0.2903 -0.0000
vn -0.9808 -0.1951 -0.0000
vn -0.9952 -0.0980 -0.0000
vn -0.9952 0.0980 -0.0000
vn -0.9808 0.1951 -0.0000
vn -0.9569 0.2903 -0.0000
vn -0.9239 0.3827 -0.0000
vn -0.8819 0.4714 -0.0000
vn -0.8315 0.5556 -0.0000
vn -0.7730 0.6344 -0.0000
vn -0.7071 0.7071 -0.0000
vn -0.6344 0.7730 -0.0000
vn -0.5556 0.8315 -0.0000
vn -0.4714 0.8819 -0.0000
vn -0.3827 0.9239 -0.0000
vn -0.2903 0.9569 -0.0000
vn -0.1951 0.9808 -0.0000
vn -0.0980 0.9952 -0.0000
vn -0.0749 -0.7608 -0.6446
vn -0.0000 -0.7645 -0.6446
vn -0.1491 -0.7498 -0.6446
vn -0.2219 -0.7316 -0.6446
vn -0.2926 -0.7063 -0.6446
vn -0.3604 -0.6742 -0.6446
vn -0.4247 -0.6357 -0.6446
vn -0.4850 -0.5910 -0.6446
vn -0.5406 -0.5406 -0.6446
vn -0.5910 -0.4850 -0.6446
vn -0.6356 -0.4247 -0.6446
vn -0.6742 -0.3604 -0.6446
vn -0.7063 -0.2926 -0.6446
vn -0.7316 -0.2219 -0.6446
vn -0.7498 -0.1491 -0.6446
vn -0.7608 -0.0749 -0.6446
vn -0.7645 -0.0000 -0.6446
vn -0.7608 0.0749 -0.6446
vn -0.7498 0.1491 -0.6446
vn -0.7316 0.2219 -0.6446
vn -0.7063 0.2926 -0.6446
vn -0.6742 0.3604 -0.6446
vn -0.6357 0.4247 -0.6446
vn -0.5910 0.4850 -0.6446
vn -0.5406 0.5406 -0.6446
vn -0.4850 0.5910 -0.6446
vn -0.4247 0.6356 -0.6446
vn -0.3604 0.6742 -0.6446
vn -0.2926 0.7063 -0.6446
vn -0.2219 0.7316 -0.6446
vn -0.1491 0.7498 -0.6446
vn -0.0749 0.7608 -0.6446
vn -0.0000 0.7645 -0.6446
vn 0.0749 0.7608 -0.6446
vn 0.1491 0.7498 -0.6446
vn 0.2219 0.7316 -0.6446
vn 0.2926 0.7063 -0.6446
vn 0.3604 0.6742 -0.6446
vn 0.4247 0.6357 -0.6446
vn 0.4850 0.5910 -0.6446
vn 0.5406 0.5406 -0.6446
vn 0.5910 0.4850 -0.6446
vn 0.6356 0.4247 -0.6446
vn 0.6742 0.3604 -0.6446
vn 0.7063 0.2926 -0.6446
vn 0.7316 0.2219 -0.6446
vn 0.7498 0.1491 -0.6446
vn 0.7608 0.0749 -0.6446
vn 0.7645 -0.0000 -0.6446
vn 0.7608 -0.0749 -0.6446
vn 0.7498 -0.1491 -0.6446
vn 0.7316 -0.2219 -0.6446
vn 0.7063 -0.2926 -0.6446
vn 0.6742 -0.3604 -0.6446
vn 0.6357 -0.4247 -0.6446
vn 0.5910 -0.4850 -0.6446
vn 0.5406 -0.5406 -0.6446
vn 0.4850 -0.5910 -0.6446
vn 0.4247 -0.6356 -0.6446
vn 0.3604 -0.6742 -0.6446
vn 0.2926 -0.7063 -0.6446
vn 0.2219 -0.7316 -0.6446
vn 0.1491 -0.7498 -0.6446
vn 0.0749 -0.7608 -0.6446
vn 0.0511 0.5191 -0.8532
vn -0.0000 0.5216 -0.8532
vn 0.1018 0.5116 -0.8532
vn 0.1514 0.4992 -0.8532
vn 0.1996 0.4819 -0.8532
vn 0.2459 0.4600 -0.8532
vn 0.2898 0.4337 -0.8532
vn 0.3309 0.4032 -0.8532
vn 0.3688 0.3688 -0.8532
vn 0.4032 0.3309 -0.8532
vn 0.4337 0.2898 -0.8532
vn 0.4600 0.2459 -0.8532
vn 0.4819 0.1996 -0.8532
vn 0.4992 0.1514 -0.8532
vn 0.5116 0.1018 -0.8532
vn 0.5191 0.0511 -0.8532
vn 0.5216 -0.0000 -0.8532
vn 0.5191 -0.0511 -0.8532
vn 0.5116 -0.1018 -0.8532
vn 0.4992 -0.1514 -0.8532
vn 0.4819 -0.1996 -0.8532
vn 0.4600 -0.2459 -0.8532
vn 0.4337 -0.2898 -0.8532
vn 0.4032 -0.3309 -0.8532
vn 0.3688 -0.3688 -0.8532
vn 0.3309 -0.4032 -0.8532
vn 0.2898 -0.4337 -0.8532
vn 0.2459 -0.4600 -0.8532
vn 0.1996 -0.4819 -0.8532
vn 0.1514 -0.4992 -0.8532
vn 0.1018 -0.5116 -0.8532
vn 0.0511 -0.5191 -0.8532
vn -0.0000 -0.5216 -0.8532
vn -0.0511 -0.5191 -0.8532
vn -0.1018 -0.5116 -0.8532
vn -0.1514 -0.4992 -0.8532
vn -0.1996 -0.4819 -0.8532
vn -0.2459 -0.4600 -0.8532
vn -0.2898 -0.4337 -0.8532
vn -0.3309 -0.4032 -0.8532
vn -0.3688 -0.3688 -0.8532
vn -0.4032 -0.3309 -0.8532
vn -0.4337 -0.2898 -0.8532
vn -0.4600 -0.2459 -0.8532
vn -0.4819 -0.1996 -0.8532
vn -0.4992 -0.1514 -0.8532
vn -0.5116 -0.1018 -0.8532
vn -0.5191 -0.0511 -0.8532
vn -0.5216 -0.0000 -0.8532
vn -0.5191 0.0511 -0.8532
vn -0.5116 0.1018 -0.8532
vn -0.4992 0.1514 -0.8532
vn -0.4819 0.1996 -0.8532
vn -0.4600 0.2459 -0.8532
vn -0.4337 0.2898 -0.8532
vn -0.4032 0.3309 -0.8532
vn -0.3688 0.3688 -0.8532
vn -0.3309 0.4032 -0.8532
vn -0.2898 0.4337 -0.8532
vn -0.2459 0.4600 -0.8532
vn -0.1996 0.4819 -0.8532
vn -0.1514 0.4992 -0.8532
vn -0.1018 0.5116 -0.8532
vn -0.0511 0.5191 -0.8532
vn -0.0000 -0.7989 -0.6014
vn -0.0000 0.7989 0.6014
vn -0.0000 0.6014 -0.7989
vn -0.0000 -0.6014 0.7989
vn -0.0000 0.6716 -0.7409
vn -0.0000 -0.6716 0.7409
vn -0.0000 0.7409 0.6716
vn 0.9758 -0.1622 -0.1470
vn -0.0000 -0.7409 -0.6716
vn -0.9758 0.1622 0.1470
vn 0.9758 0.1622 0.1470
vn -0.9758 -0.1622 -0.1470
vn -0.9412 0.3254 -0.0909
vn -0.0023 -0.2628 -0.9648
vn 0.9412 0.3254 -0.0909
vn 0.3379 -0.9065 0.2531
vn 0.3379 0.9065 -0.2531
vn -0.3379 0.9065 -0.2531
vn -0.3379 -0.9065 0.2531
vn 0.0023 -0.2628 -0.9648
vn 0.9412 -0.3254 0.0909
vn -0.9412 -0.3254 0.0909
vn -0.3379 0.9060 -0.2549
vn 0.9412 -0.3252 0.0915
vn -0.9412 -0.3252 0.0915
vn -0.9412 0.3252 -0.0915
vn -0.3379 -0.9060 0.2549
vn 0.9412 0.3252 -0.0915
vn 0.3379 -0.9060 0.2549
vn 0.3379 0.9060 -0.2549
vn -0.3378 -0.9134 0.2273
vn -0.9412 -0.3279 0.0816
vn 0.0023 0.2628 0.9648
vn -0.0023 0.2628 0.9648
vn 0.9412 0.3279 -0.0816
vn 0.3378 0.9134 -0.2273
vn 0.9412 -0.3279 0.0816
vn -0.3378 0.9134 -0.2273
vn -0.9412 0.3279 -0.0816
vn 0.3378 -0.9134 0.2273
vn -0.0000 -0.8557 -0.5174
vn -0.0000 -0.9032 -0.4292
vn -0.0000 0.7710 0.6368
vn -0.0000 -0.9693 0.2459
vn -0.0000 0.9610 -0.2766
vn -0.0000 -0.5641 -0.8257
vn -0.0000 -0.7393 -0.6734
vn -0.0000 -0.4453 -0.8954
vn 0.5733 -0.2680 -0.7743
vn 0.4762 -0.1108 -0.8723
vn 0.4866 -0.7110 -0.5076
vn 0.5206 -0.6287 -0.5777
vn -0.3224 0.8315 0.4524
vn -0.5722 -0.6284 0.5270
vn -0.5792 -0.5461 0.6053
vn -0.5667 -0.3767 0.7328
vn -0.5570 -0.2771 0.7829
vn -0.3178 0.9466 -0.0539
vn -0.6468 -0.7626 -0.0000
vn 0.5791 -0.1745 0.7964
vn -0.4992 -0.1130 0.8591
vn -0.5785 -0.1745 0.7968
vn -0.3178 0.9466 0.0539
vn 0.6309 -0.4885 -0.6027
vn 0.5749 -0.7594 0.3046
vn -0.4674 0.7594 -0.4526
vn -0.8863 -0.4296 -0.1731
vn -0.4866 0.7110 0.5076
vn -0.4539 -0.0212 0.8908
vn -0.3530 0.1585 0.9221
vn 0.4975 -0.7619 -0.4147
vn 0.8863 -0.4297 -0.1730
vn 0.5894 0.5265 -0.6127
vn 0.4074 0.6343 -0.6571
vn 0.5840 -0.3609 -0.7271
vn -0.3171 0.3796 0.8691
vn -0.5202 -0.7658 0.3780
vn 0.5542 0.3644 -0.7483
vn -0.2966 0.2803 0.9129
vn 0.5638 -0.3485 -0.7488
vn -0.3035 0.1876 0.9342
vn 0.5570 0.2771 -0.7829
vn 0.5379 0.3485 -0.7676
vt 0.181819 0.000000
vt 0.159092 0.039365
vt 0.204546 0.039365
vt 0.909091 0.000000
vt 0.886364 0.039365
vt 0.931818 0.039365
vt 0.727273 0.000000
vt 0.704546 0.039365
vt 0.750000 0.039365
vt 0.545455 0.000000
vt 0.522728 0.039365
vt 0.568182 0.039365
vt 0.090910 0.157461
vt 0.113637 0.196826
vt 0.136364 0.157461
vt 0.636364 0.157461
vt 0.651312 0.183351
vt 0.659352 0.157461
vt 0.068182 0.196826
vt 0.613637 0.196826
vt 0.650246 0.196826
vt 0.181819 0.314921
vt 0.204546 0.354286
vt 0.227273 0.314921
vt 0.545455 0.314921
vt 0.568182 0.354286
vt 0.590909 0.314921
vt 0.431819 0.433017
vt 0.454546 0.472382
vt 0.477273 0.433017
vt 0.409091 0.393651
vt 0.454546 0.393651
vt 0.500000 0.393651
vt 0.436371 0.362171
vt 0.431902 0.365434
vt 0.420632 0.373663
vt 0.477273 0.354286
vt 0.522728 0.354286
vt 0.500000 0.314921
vt 0.613637 0.433017
vt 0.636364 0.472382
vt 0.659091 0.433017
vt 0.590909 0.393651
vt 0.636364 0.393651
vt 0.613637 0.354286
vt 0.681818 0.393651
vt 0.659091 0.354286
vt 0.701250 0.359994
vt 0.699645 0.354286
vt 0.636364 0.314921
vt 0.681818 0.314921
vt 0.696723 0.340737
vt 0.693888 0.314921
vt 0.795455 0.433017
vt 0.818182 0.472382
vt 0.840909 0.433017
vt 0.772727 0.393651
vt 0.818182 0.393651
vt 0.863636 0.393651
vt 0.804397 0.369775
vt 0.787310 0.368394
vt 0.849054 0.368394
vt 0.831967 0.369775
vt 0.068182 0.433017
vt 0.090910 0.472382
vt 0.113637 0.433017
vt 0.045455 0.393651
vt 0.090910 0.393651
vt 0.136365 0.393651
vt 0.068182 0.354286
vt 0.113637 0.354286
vt 0.159092 0.354286
vt 0.045455 0.314921
vt 0.090909 0.314921
vt 0.136364 0.314921
vt 0.250001 0.433017
vt 0.272728 0.472382
vt 0.295455 0.433017
vt 0.227273 0.393651
vt 0.272728 0.393651
vt 0.250001 0.354286
vt 0.318182 0.393651
vt 0.290903 0.362171
vt 0.282280 0.354286
vt 0.306642 0.373663
vt 0.262792 0.332131
vt 0.249278 0.314921
vt 0.522728 0.275556
vt 0.568182 0.275556
vt 0.590909 0.236191
vt 0.613637 0.275556
vt 0.636364 0.236191
vt 0.659091 0.275556
vt 0.651426 0.210102
vt 0.649717 0.206424
vt 0.674003 0.249728
vt 0.664911 0.236191
vt 0.689270 0.302014
vt 0.684783 0.275556
vt 0.046196 0.234907
vt 0.046262 0.236191
vt 0.090910 0.236191
vt 0.068182 0.275556
vt 0.113637 0.275556
vt 0.136364 0.236191
vt 0.159092 0.275556
vt 0.204546 0.275556
vt 0.239299 0.294093
vt 0.239168 0.293711
vt 0.232969 0.275556
vt 0.545455 0.236191
vt 0.568182 0.196826
vt 0.545455 0.157461
vt 0.590909 0.157461
vt 0.954545 0.157461
vt 0.977273 0.196826
vt 1.000000 0.157461
vt 0.181819 0.236191
vt 0.159092 0.196826
vt 0.226532 0.237475
vt 0.226466 0.236191
vt 0.204546 0.196826
vt 0.226473 0.234805
vt 0.230238 0.196826
vt 0.181819 0.157461
vt 0.225309 0.160863
vt 0.224774 0.157461
vt 0.231668 0.188393
vt 0.504497 0.070942
vt 0.506959 0.078731
vt 0.545455 0.078731
vt 0.522728 0.118096
vt 0.520114 0.122623
vt 0.525437 0.157461
vt 0.568182 0.118096
vt 0.590909 0.078731
vt 0.613637 0.118096
vt 0.659091 0.118096
vt 0.672534 0.141379
vt 0.681818 0.078731
vt 0.690586 0.118096
vt 0.699291 0.108994
vt 0.727273 0.078731
vt 0.722066 0.087749
vt 0.728882 0.081517
vt 0.732699 0.078731
vt 0.760779 0.058034
vt 0.875585 0.058034
vt 0.903665 0.078731
vt 0.909091 0.078731
vt 0.907482 0.081517
vt 0.914298 0.087749
vt 0.954545 0.078731
vt 0.935497 0.107523
vt 0.936397 0.110166
vt 0.938672 0.118096
vt 0.977273 0.118096
vt 0.340910 0.039365
vt 0.386364 0.039365
vt 0.363637 0.000000
vt 0.113637 0.118096
vt 0.136365 0.078731
vt 0.159092 0.118096
vt 0.181819 0.078731
vt 0.204546 0.118096
vt 0.223408 0.150765
vt 0.220315 0.078731
vt 0.222777 0.070942
vt 0.211546 0.105971
vt 0.214767 0.118096
vt 0.625000 0.625000
vt 0.875000 0.625000
vt 0.875000 0.750000
vt 0.625000 0.750000
vt 0.125000 0.750000
vt 0.375000 0.750000
vt 0.451212 0.585316
vt 0.452960 0.540570
vt 0.452960 0.209430
vt 0.451212 0.164685
vt 0.125000 0.625000
vt 0.375000 0.625000
vt 0.465573 0.625000
vt 0.473442 0.642372
vt 0.497847 0.692237
vt 0.502917 0.702498
vt 0.505783 0.707900
vt 0.529011 0.750000
vt 0.375000 0.250000
vt 0.625000 0.250000
vt 0.625000 0.500000
vt 0.375000 0.500000
vt 0.625000 1.000000
vt 0.375000 1.000000
vt 0.375000 0.000000
vt 0.375000 0.000000
vt 0.625000 0.000000
vt 0.375000 0.000000
vt 0.375000 0.750000
vt 0.587554 0.000000
vt 0.585464 0.000000
vt 0.577190 0.000000
vt 0.573100 0.000000
vt 0.563221 0.000000
vt 0.557389 0.000000
vt 0.554532 0.000000
vt 0.538480 0.000000
vt 0.625000 0.000000
vt 0.523664 0.750000
vt 0.501228 0.750000
vt 0.500456 0.750000
vt 0.499930 0.750000
vt 0.487020 0.750000
vt 0.484259 0.750000
vt 0.718697 0.750000
vt 0.781303 0.750000
vt 0.781303 0.750000
vt 0.718697 0.750000
vt 0.537161 0.000000
vt 0.523126 0.000000
vt 0.500988 0.000000
vt 0.489300 0.000000
vt 0.472988 0.000000
vt 0.471174 0.000000
vt 0.470985 0.000000
vt 0.473839 0.000000
vt 0.479947 0.000000
vt 0.484441 0.000000
vt 0.483969 0.750000
vt 0.473425 0.750000
vt 0.471648 0.750000
vt 0.479092 0.750000
vt 0.484618 0.750000
vt 0.497335 0.750000
vt 0.511162 0.750000
vt 0.527264 0.750000
vt 0.538566 0.750000
vt 0.781303 0.750000
vt 0.718697 0.750000
vt 0.375000 0.750000
vt 0.550835 0.165267
vt 0.550835 0.584733
vt 0.125000 0.500000
vt 0.528952 0.000000
vt 0.512707 0.029526
vt 0.502559 0.048534
vt 0.483754 0.086736
vt 0.472730 0.108891
vt 0.467280 0.120919
vt 0.465580 0.125000
vt 0.375000 0.125000
vt 0.875000 0.500000
vt 0.575802 0.533877
vt 0.425860 0.530597
vt 0.425860 0.219403
vt 0.575802 0.216123
vt 0.576452 0.159857
vt 0.625000 0.125000
vt 0.425220 0.593454
vt 0.425220 0.156546
vt 0.576452 0.590143
vt 0.534650 0.625000
vt 0.523990 0.622884
vt 0.512841 0.620934
vt 0.494119 0.618012
vt 0.471410 0.615159
vt 0.468905 0.614902
vt 0.463461 0.614604
vt 0.451874 0.614127
vt 0.449886 0.614237
vt 0.445223 0.615665
vt 0.445363 0.616469
vt 0.450861 0.619848
vt 0.453025 0.620757
vt 0.465236 0.624890
vt 0.453277 0.129230
vt 0.449770 0.130503
vt 0.448851 0.130988
vt 0.445537 0.133886
vt 0.448037 0.135669
vt 0.448846 0.135822
vt 0.452140 0.135786
vt 0.464656 0.135346
vt 0.470787 0.134817
vt 0.487857 0.132848
vt 0.499140 0.131298
vt 0.518740 0.128092
vt 0.527152 0.126547
vt 0.534847 0.125000
vt 0.549259 0.540905
vt 0.549259 0.209095
vt 0.375000 0.000000
vt 1.000000 0.500000
vt 1.000000 1.000000
vt 0.984375 1.000000
vt 0.984375 0.500000
vt 0.968750 1.000000
vt 0.968750 0.500000
vt 0.953125 1.000000
vt 0.953125 0.500000
vt 0.937500 1.000000
vt 0.937500 0.500000
vt 0.921875 1.000000
vt 0.921875 0.500000
vt 0.906250 1.000000
vt 0.906250 0.500000
vt 0.890625 1.000000
vt 0.890625 0.500000
vt 0.875000 1.000000
vt 0.859375 1.000000
vt 0.859375 0.500000
vt 0.843750 1.000000
vt 0.843750 0.500000
vt 0.828125 1.000000
vt 0.828125 0.500000
vt 0.812500 1.000000
vt 0.812500 0.500000
vt 0.796875 1.000000
vt 0.796875 0.500000
vt 0.781250 1.000000
vt 0.781250 0.500000
vt 0.765625 1.000000
vt 0.765625 0.500000
vt 0.750000 1.000000
vt 0.750000 0.500000
vt 0.734375 1.000000
vt 0.734375 0.500000
vt 0.718750 1.000000
vt 0.718750 0.500000
vt 0.703125 1.000000
vt 0.703125 0.500000
vt 0.687500 1.000000
vt 0.687500 0.500000
vt 0.671875 1.000000
vt 0.671875 0.500000
vt 0.656250 1.000000
vt 0.656250 0.500000
vt 0.640625 1.000000
vt 0.640625 0.500000
vt 0.609375 1.000000
vt 0.609375 0.500000
vt 0.593750 1.000000
vt 0.593750 0.500000
vt 0.578125 1.000000
vt 0.578125 0.500000
vt 0.562500 1.000000
vt 0.562500 0.500000
vt 0.546875 1.000000
vt 0.546875 0.500000
vt 0.531250 1.000000
vt 0.531250 0.500000
vt 0.515625 1.000000
vt 0.515625 0.500000
vt 0.500000 1.000000
vt 0.500000 0.500000
vt 0.484375 1.000000
vt 0.484375 0.500000
vt 0.468750 1.000000
vt 0.468750 0.500000
vt 0.453125 1.000000
vt 0.453125 0.500000
vt 0.437500 1.000000
vt 0.437500 0.500000
vt 0.421875 1.000000
vt 0.421875 0.500000
vt 0.406250 1.000000
vt 0.406250 0.500000
vt 0.390625 1.000000
vt 0.390625 0.500000
vt 0.359375 1.000000
vt 0.359375 0.500000
vt 0.343750 1.000000
vt 0.343750 0.500000
vt 0.328125 1.000000
vt 0.328125 0.500000
vt 0.312500 1.000000
vt 0.312500 0.500000
vt 0.296875 1.000000
vt 0.296875 0.500000
vt 0.281250 1.000000
vt 0.281250 0.500000
vt 0.265625 1.000000
vt 0.265625 0.500000
vt 0.250000 1.000000
vt 0.250000 0.500000
vt 0.234375 1.000000
vt 0.234375 0.500000
vt 0.218750 1.000000
vt 0.218750 0.500000
vt 0.203125 1.000000
vt 0.203125 0.500000
vt 0.187500 1.000000
vt 0.187500 0.500000
vt 0.171875 1.000000
vt 0.171875 0.500000
vt 0.156250 1.000000
vt 0.156250 0.500000
vt 0.140625 1.000000
vt 0.140625 0.500000
vt 0.125000 1.000000
vt 0.109375 1.000000
vt 0.109375 0.500000
vt 0.093750 1.000000
vt 0.093750 0.500000
vt 0.078125 1.000000
vt 0.078125 0.500000
vt 0.062500 1.000000
vt 0.062500 0.500000
vt 0.046875 1.000000
vt 0.046875 0.500000
vt 0.031250 1.000000
vt 0.031250 0.500000
vt 0.273524 0.488844
vt 0.250000 0.490000
vt 0.226476 0.488844
vt 0.203178 0.485388
vt 0.180332 0.479666
vt 0.158156 0.471731
vt 0.136865 0.461661
vt 0.116663 0.449553
vt 0.097746 0.435522
vt 0.080294 0.419706
vt 0.064478 0.402254
vt 0.050447 0.383337
vt 0.038339 0.363135
vt 0.028269 0.341844
vt 0.020334 0.319668
vt 0.014612 0.296822
vt 0.011156 0.273524
vt 0.010000 0.250000
vt 0.011156 0.226476
vt 0.014612 0.203178
vt 0.020334 0.180332
vt 0.028269 0.158156
vt 0.038339 0.136865
vt 0.050447 0.116663
vt 0.064478 0.097746
vt 0.080294 0.080294
vt 0.097746 0.064478
vt 0.116663 0.050447
vt 0.136865 0.038339
vt 0.158156 0.028269
vt 0.180332 0.020334
vt 0.203178 0.014612
vt 0.226476 0.011156
vt 0.250000 0.010000
vt 0.273524 0.011156
vt 0.296822 0.014612
vt 0.319668 0.020334
vt 0.341844 0.028269
vt 0.363135 0.038339
vt 0.383337 0.050447
vt 0.402254 0.064478
vt 0.419706 0.080294
vt 0.435522 0.097746
vt 0.449553 0.116663
vt 0.461661 0.136865
vt 0.471731 0.158156
vt 0.479666 0.180332
vt 0.485388 0.203178
vt 0.488844 0.226476
vt 0.490000 0.250000
vt 0.488844 0.273524
vt 0.485388 0.296822
vt 0.479666 0.319668
vt 0.471731 0.341844
vt 0.461661 0.363135
vt 0.449553 0.383337
vt 0.435522 0.402254
vt 0.419706 0.419706
vt 0.402254 0.435522
vt 0.383337 0.449553
vt 0.363135 0.461661
vt 0.341844 0.471731
vt 0.319668 0.479666
vt 0.296822 0.485388
vt 0.015625 1.000000
vt 0.015625 0.500000
vt 0.000000 1.000000
vt 0.000000 0.500000
vt 0.721014 0.250000
vt 0.721153 0.252841
vt 0.760611 0.357735
vt 0.750000 0.358257
vt 0.750000 0.490000
vt 0.773524 0.488844
vt 0.771120 0.356177
vt 0.796822 0.485388
vt 0.781425 0.353595
vt 0.819668 0.479666
vt 0.791428 0.350016
vt 0.841844 0.471731
vt 0.801032 0.345474
vt 0.863135 0.461661
vt 0.810144 0.340012
vt 0.883337 0.449553
vt 0.818678 0.333684
vt 0.902254 0.435522
vt 0.826549 0.326549
vt 0.919706 0.419706
vt 0.833684 0.318677
vt 0.935522 0.402254
vt 0.840012 0.310144
vt 0.949553 0.383337
vt 0.845474 0.301032
vt 0.961661 0.363135
vt 0.850016 0.291428
vt 0.971731 0.341844
vt 0.853596 0.281425
vt 0.979666 0.319668
vt 0.856177 0.271120
vt 0.985388 0.296822
vt 0.857736 0.260611
vt 0.988844 0.273524
vt 0.858257 0.250000
vt 0.990000 0.250000
vt 0.857736 0.239389
vt 0.988844 0.226476
vt 0.856177 0.228880
vt 0.985388 0.203178
vt 0.853596 0.218575
vt 0.979666 0.180332
vt 0.850016 0.208572
vt 0.971731 0.158156
vt 0.845474 0.198968
vt 0.961661 0.136865
vt 0.840012 0.189856
vt 0.949553 0.116663
vt 0.833684 0.181323
vt 0.935522 0.097746
vt 0.826549 0.173451
vt 0.919706 0.080294
vt 0.818678 0.166316
vt 0.902254 0.064478
vt 0.810144 0.159988
vt 0.883337 0.050447
vt 0.801032 0.154526
vt 0.863135 0.038339
vt 0.791428 0.149984
vt 0.841844 0.028269
vt 0.781425 0.146405
vt 0.819668 0.020334
vt 0.771120 0.143823
vt 0.796822 0.014612
vt 0.760611 0.142265
vt 0.773524 0.011156
vt 0.750000 0.141743
vt 0.750000 0.010000
vt 0.739389 0.142264
vt 0.726476 0.011156
vt 0.728880 0.143823
vt 0.703178 0.014612
vt 0.718575 0.146405
vt 0.680332 0.020334
vt 0.708572 0.149984
vt 0.658156 0.028269
vt 0.698968 0.154526
vt 0.636865 0.038339
vt 0.689856 0.159988
vt 0.616663 0.050447
vt 0.681323 0.166316
vt 0.597746 0.064478
vt 0.673451 0.173451
vt 0.580294 0.080294
vt 0.666316 0.181323
vt 0.564478 0.097746
vt 0.659988 0.189856
vt 0.550447 0.116663
vt 0.654526 0.198968
vt 0.538339 0.136865
vt 0.649984 0.208572
vt 0.528269 0.158156
vt 0.646405 0.218575
vt 0.520334 0.180332
vt 0.643823 0.228880
vt 0.514612 0.203178
vt 0.642264 0.239389
vt 0.511156 0.226476
vt 0.641743 0.250000
vt 0.510000 0.250000
vt 0.642264 0.260611
vt 0.511156 0.273524
vt 0.643823 0.271120
vt 0.514612 0.296822
vt 0.646405 0.281425
vt 0.520334 0.319668
vt 0.649984 0.291428
vt 0.528269 0.341844
vt 0.654526 0.301032
vt 0.538339 0.363135
vt 0.659988 0.310144
vt 0.550447 0.383337
vt 0.666316 0.318677
vt 0.564478 0.402254
vt 0.673451 0.326549
vt 0.580294 0.419706
vt 0.681322 0.333684
vt 0.597746 0.435522
vt 0.689856 0.340012
vt 0.616663 0.449553
vt 0.698968 0.345474
vt 0.636865 0.461661
vt 0.708572 0.350016
vt 0.658156 0.471731
vt 0.718575 0.353595
vt 0.680332 0.479666
vt 0.728880 0.356177
vt 0.703178 0.485388
vt 0.739389 0.357735
vt 0.726476 0.488844
vt 0.758635 0.337672
vt 0.750000 0.338096
vt 0.767187 0.336403
vt 0.775573 0.334302
vt 0.783713 0.331390
vt 0.791528 0.327694
vt 0.798943 0.323249
vt 0.805887 0.318099
vt 0.812293 0.312293
vt 0.818099 0.305887
vt 0.823249 0.298943
vt 0.827693 0.291528
vt 0.831390 0.283713
vt 0.834302 0.275573
vt 0.836403 0.267187
vt 0.837672 0.258635
vt 0.838096 0.250000
vt 0.837671 0.241365
vt 0.836403 0.232813
vt 0.834302 0.224427
vt 0.831390 0.216287
vt 0.827693 0.208472
vt 0.823249 0.201057
vt 0.818099 0.194113
vt 0.812293 0.187707
vt 0.805887 0.181901
vt 0.798943 0.176751
vt 0.791528 0.172307
vt 0.783713 0.168610
vt 0.775573 0.165698
vt 0.767187 0.163597
vt 0.758635 0.162329
vt 0.750000 0.161904
vt 0.741365 0.162329
vt 0.732813 0.163597
vt 0.724427 0.165698
vt 0.716287 0.168610
vt 0.708472 0.172307
vt 0.701056 0.176751
vt 0.694113 0.181901
vt 0.687707 0.187707
vt 0.681901 0.194113
vt 0.676751 0.201057
vt 0.672307 0.208472
vt 0.668610 0.216287
vt 0.665698 0.224427
vt 0.663597 0.232813
vt 0.662329 0.241365
vt 0.661904 0.250000
vt 0.662329 0.258635
vt 0.663597 0.267187
vt 0.665698 0.275573
vt 0.668610 0.283713
vt 0.672307 0.291528
vt 0.676751 0.298943
vt 0.681901 0.305887
vt 0.687707 0.312293
vt 0.694113 0.318099
vt 0.701057 0.323249
vt 0.708472 0.327693
vt 0.716287 0.331390
vt 0.724427 0.334302
vt 0.732813 0.336403
vt 0.741365 0.337672
vt 0.753901 0.289605
vt 0.750000 0.289797
vt 0.757764 0.289032
vt 0.761552 0.288083
vt 0.765230 0.286767
vt 0.768760 0.285098
vt 0.772110 0.283090
vt 0.775247 0.280763
vt 0.778141 0.278141
vt 0.780763 0.275247
vt 0.783090 0.272110
vt 0.785098 0.268760
vt 0.786768 0.265230
vt 0.788083 0.261552
vt 0.789032 0.257764
vt 0.789605 0.253901
vt 0.789796 0.250000
vt 0.789605 0.246099
vt 0.789032 0.242236
vt 0.788083 0.238448
vt 0.786767 0.234771
vt 0.785097 0.231240
vt 0.783090 0.227890
vt 0.780763 0.224753
vt 0.778141 0.221860
vt 0.775247 0.219237
vt 0.772110 0.216910
vt 0.768760 0.214903
vt 0.765230 0.213233
vt 0.761552 0.211917
vt 0.757764 0.210968
vt 0.753901 0.210395
vt 0.750000 0.210203
vt 0.746099 0.210395
vt 0.742236 0.210968
vt 0.738447 0.211917
vt 0.734770 0.213233
vt 0.731240 0.214902
vt 0.727890 0.216910
vt 0.724754 0.219237
vt 0.721860 0.221859
vt 0.719237 0.224753
vt 0.716911 0.227890
vt 0.714903 0.231240
vt 0.713233 0.234771
vt 0.711917 0.238448
vt 0.710968 0.242236
vt 0.710395 0.246099
vt 0.710203 0.250000
vt 0.710395 0.253901
vt 0.710968 0.257764
vt 0.711917 0.261552
vt 0.713233 0.265229
vt 0.714902 0.268760
vt 0.716910 0.272110
vt 0.719237 0.275247
vt 0.721860 0.278140
vt 0.724753 0.280763
vt 0.727890 0.283090
vt 0.731240 0.285097
vt 0.734771 0.286767
vt 0.738448 0.288083
vt 0.742236 0.289032
vt 0.746099 0.289605
vt 0.752841 0.278847
vt 0.750000 0.278986
vt 0.755655 0.278429
vt 0.758415 0.277738
vt 0.761093 0.276780
vt 0.763664 0.275564
vt 0.766104 0.274101
vt 0.768388 0.272407
vt 0.770496 0.270496
vt 0.772406 0.268389
vt 0.774101 0.266104
vt 0.775564 0.263664
vt 0.776780 0.261092
vt 0.777738 0.258414
vt 0.778429 0.255655
vt 0.778847 0.252841
vt 0.778986 0.250000
vt 0.778847 0.247159
vt 0.778429 0.244345
vt 0.777738 0.241586
vt 0.776780 0.238907
vt 0.775563 0.236336
vt 0.774101 0.233896
vt 0.772407 0.231611
vt 0.770496 0.229504
vt 0.768389 0.227593
vt 0.766104 0.225899
vt 0.763664 0.224436
vt 0.761093 0.223220
vt 0.758414 0.222262
vt 0.755655 0.221571
vt 0.752841 0.221153
vt 0.750000 0.221014
vt 0.747159 0.221153
vt 0.744345 0.221571
vt 0.741586 0.222262
vt 0.738908 0.223220
vt 0.736336 0.224436
vt 0.733896 0.225899
vt 0.731611 0.227593
vt 0.729504 0.229504
vt 0.727593 0.231611
vt 0.725898 0.233896
vt 0.724436 0.236336
vt 0.723220 0.238907
vt 0.722262 0.241586
vt 0.721570 0.244345
vt 0.721153 0.247159
vt 0.721571 0.255655
vt 0.722262 0.258414
vt 0.723220 0.261093
vt 0.724436 0.263664
vt 0.725899 0.266104
vt 0.727593 0.268389
vt 0.729503 0.270496
vt 0.731611 0.272407
vt 0.733896 0.274101
vt 0.736336 0.275564
vt 0.738907 0.276780
vt 0.741586 0.277738
vt 0.744345 0.278429
vt 0.747159 0.278847
vt 0.596112 0.000000
vt 0.596112 0.250000
vt 0.596112 0.416667
vt 0.625000 0.416667
vt 0.596112 0.500000
vt 0.596112 0.750000
vt 0.596112 0.916667
vt 0.625000 0.916667
vt 0.596112 1.000000
vt 0.375000 0.916667
vt 0.791667 0.500000
vt 0.791667 0.750000
vt 0.708333 0.500000
vt 0.708333 0.750000
vt 0.596112 0.833333
vt 0.596112 0.333333
vt 0.625000 0.833333
vt 0.625000 0.333333
vt 0.291667 0.500000
vt 0.375000 0.833333
vt 0.375000 0.333333
vt 0.208333 0.500000
vt 0.375000 0.416667
vt 0.291667 0.750000
vt 0.208333 0.750000
vt 0.562500 0.000000
vt 0.562500 0.250000
vt 0.562500 0.750000
vt 0.562500 1.000000
vt 0.437500 0.750000
vt 0.500000 0.750000
vt 0.500000 1.000000
vt 0.437500 1.000000
vt 0.437500 0.250000
vt 0.500000 0.250000
vt 0.437500 0.000000
vt 0.500000 0.000000
vt 0.042490 0.275556
vt 0.046255 0.237577
vt 0.027628 0.354286
vt 0.030550 0.340737
vt 0.515727 0.105970
vt 0.464482 0.332131
vt 0.477996 0.314921
vt 0.487975 0.294093
vt 0.494305 0.275556
vt 0.357505 0.068109
vt 0.322679 0.070942
vt 0.403392 0.383779
vt 0.684025 0.267908
vt 0.507877 0.249834
vt 0.495689 0.267369
vt 0.404595 0.070942
vt 0.369769 0.068109
vt 0.323882 0.383779
vt 0.033385 0.314921
vt 0.753296 0.359994
vt 0.785730 0.368004
vt 0.211345 0.106686
vt 0.537973 0.118458
vt 0.560212 0.067766
vt 0.572963 0.036511
vt 0.519138 0.118096
vt 0.516908 0.236191
vt 0.531633 0.212251
vt 0.026023 0.359994
vt 0.487242 0.000000
vt 0.499846 0.000000
vt 0.500456 0.000000
vt 0.501093 0.000000
vt 0.524095 0.000000
vt 0.587554 0.750000
vt 0.571908 0.710764
vt 0.560212 0.682234
vt 0.537771 0.631477
vt 0.947474 0.157461
vt 0.940390 0.132943
vt 0.883068 0.359994
vt 0.038003 0.302014
vt 0.530846 0.182765
vt 0.444994 0.354286
vt 0.947482 0.169695
vt 0.532413 0.196826
vt 0.039091 0.295597
vt 0.533150 0.208912
vt 0.541438 0.750000
vt 0.547779 0.750000
vt 0.562147 0.750000
vt 0.570783 0.750000
vt 0.579264 0.750000
vt 0.585270 0.750000
vt 0.955287 0.234907
vt 0.948850 0.196826
vt 0.946336 0.189462
s 1
usemtl Material
f 1/1/1 9/2/2 10/3/3
f 1/4/1 14/5/4 9/6/2
f 1/7/1 18/8/5 14/9/4
f 1/10/1 13/11/6 18/12/5
f 2/13/7 23/14/8 12/15/9
f 3/16/10 768/17/11 771/18/12
f 2/13/7 25/19/13 23/14/8
f 3/16/10 27/20/14 769/21/15 768/17/11
f 4/22/16 40/23/17 30/24/18
f 5/25/19 49/26/20 36/27/21
f 42/28/22 6/29/23 47/30/24
f 41/31/25 42/28/22 50/32/26
f 42/28/22 47/30/24 50/32/26
f 50/32/26 47/30/24 48/33/27
f 41/31/25 50/32/26 717/34/28 723/35/29 721/36/30
f 50/32/26 48/33/27 51/37/31
f 51/37/31 48/33/27 49/38/20
f 51/37/31 49/38/20 37/39/32
f 37/39/32 49/38/20 5/25/19
f 47/40/24 6/41/23 45/42/33
f 48/43/27 47/40/24 52/44/34
f 49/26/20 48/43/27 53/45/35
f 47/40/24 45/42/33 52/44/34
f 52/44/34 45/42/33 46/46/36
f 48/43/27 52/44/34 53/45/35
f 53/45/35 52/44/34 54/47/37
f 52/44/34 46/46/36 54/47/37
f 54/47/37 46/46/36 720/48/38 719/49/39
f 49/26/20 53/45/35 36/27/21
f 36/27/21 53/45/35 35/50/40
f 53/45/35 54/47/37 35/50/40
f 35/50/40 54/47/37 34/51/41
f 54/47/37 719/49/39 718/52/42 34/51/41
f 34/51/41 718/52/42 746/53/43
f 45/54/33 6/55/23 43/56/44
f 46/57/36 45/54/33 55/58/45
f 45/54/33 43/56/44 55/58/45
f 55/58/45 43/56/44 44/59/46
f 46/57/36 55/58/45 725/60/47 724/61/48
f 55/58/45 44/59/46 728/62/49 727/63/50
f 43/64/44 6/65/23 38/66/51
f 44/67/46 43/64/44 56/68/52
f 43/64/44 38/66/51 56/68/52
f 56/68/52 38/66/51 39/69/53
f 44/67/46 56/68/52 57/70/54
f 57/70/54 56/68/52 58/71/55
f 56/68/52 39/69/53 58/71/55
f 58/71/55 39/69/53 40/72/17
f 33/73/56 57/70/54 32/74/57
f 57/70/54 58/71/55 32/74/57
f 32/74/57 58/71/55 31/75/58
f 58/71/55 40/72/17 31/75/58
f 31/75/58 40/72/17 4/22/16
f 38/76/51 6/77/23 42/78/22
f 39/79/53 38/76/51 59/80/59
f 40/23/17 39/79/53 60/81/60
f 38/76/51 42/78/22 59/80/59
f 59/80/59 42/78/22 41/82/25
f 39/79/53 59/80/59 60/81/60
f 60/81/60 59/80/59 732/83/61 731/84/62
f 59/80/59 41/82/25 729/85/63 732/83/61
f 40/23/17 60/81/60 30/24/18
f 30/24/18 60/81/60 730/86/64 736/87/65
f 60/81/60 731/84/62 730/86/64
f 26/88/66 37/39/32 5/25/19
f 29/89/67 5/25/19 36/27/21
f 28/90/68 29/89/67 61/91/69
f 27/20/14 28/90/68 62/92/70
f 29/89/67 36/27/21 61/91/69
f 61/91/69 36/27/21 35/50/40
f 28/90/68 61/91/69 62/92/70
f 62/92/70 61/91/69 63/93/71
f 61/91/69 35/50/40 63/93/71
f 63/93/71 35/50/40 34/51/41
f 27/20/14 62/92/70 762/94/72 770/95/73 769/21/15
f 62/92/70 63/93/71 738/96/74 737/97/75
f 63/93/71 34/51/41 743/98/76 744/99/77
f 25/19/13 764/100/78 766/101/79 65/102/80
f 64/103/81 33/73/56 32/74/57
f 65/102/80 64/103/81 66/104/82
f 64/103/81 32/74/57 66/104/82
f 66/104/82 32/74/57 31/75/58
f 25/19/13 65/102/80 23/14/8
f 23/14/8 65/102/80 22/105/83
f 65/102/80 66/104/82 22/105/83
f 22/105/83 66/104/82 21/106/84
f 66/104/82 31/75/58 21/106/84
f 21/106/84 31/75/58 4/22/16
f 24/107/85 4/22/16 30/24/18
f 24/107/85 30/24/18 747/108/86 749/109/87 748/110/88
f 26/88/66 5/25/19 29/89/67
f 26/88/66 29/89/67 67/111/89
f 67/111/89 29/89/67 28/90/68
f 67/111/89 28/90/68 68/112/90
f 68/112/90 28/90/68 27/20/14
f 20/113/91 68/112/90 19/114/92
f 68/112/90 27/20/14 19/114/92
f 19/114/92 27/20/14 3/16/10
f 15/115/93 25/116/13 2/117/7
f 21/106/84 4/22/16 24/107/85
f 22/105/83 21/106/84 69/118/94
f 23/14/8 22/105/83 70/119/95
f 21/106/84 24/107/85 69/118/94
f 69/118/94 24/107/85 757/120/96 758/121/97
f 22/105/83 69/118/94 70/119/95
f 70/119/95 69/118/94 71/122/98
f 69/118/94 758/121/97 756/123/99 71/122/98
f 71/122/98 756/123/99 755/124/100
f 23/14/8 70/119/95 12/15/9
f 12/15/9 70/119/95 11/125/101
f 70/119/95 71/122/98 11/125/101
f 11/125/101 71/122/98 774/126/102 776/127/103
f 71/122/98 755/124/100 775/128/104 774/126/102
f 13/11/6 789/129/105 785/130/106 73/131/107
f 72/132/108 780/133/109 772/134/110 20/113/91
f 73/131/107 72/132/108 74/135/111
f 72/132/108 20/113/91 74/135/111
f 74/135/111 20/113/91 19/114/92
f 13/11/6 73/131/107 18/12/5
f 18/12/5 73/131/107 17/136/112
f 73/131/107 74/135/111 17/136/112
f 17/136/112 74/135/111 16/137/113
f 74/135/111 19/114/92 16/137/113
f 16/137/113 19/114/92 3/16/10
f 16/138/113 3/16/10 771/18/12 773/139/114
f 17/140/112 16/138/113 782/141/115 781/142/116
f 18/8/5 17/140/112 75/143/117
f 16/138/113 773/139/114 782/141/115
f 17/140/112 781/142/116 786/144/118 75/143/117
f 75/143/117 786/144/118 787/145/119
f 18/8/5 75/143/117 14/9/4
f 14/9/4 75/143/117 791/146/120 790/147/121
f 75/143/117 787/145/119 791/146/120
f 14/5/4 790/148/121 793/149/122 76/150/123
f 76/150/123 794/151/124 803/152/125
f 14/5/4 76/150/123 9/6/2
f 9/6/2 76/150/123 8/153/126
f 76/150/123 803/152/125 802/154/127 801/155/128 8/153/126
f 8/153/126 801/155/128 804/156/129 7/157/130
f 7/157/130 15/115/93 2/117/7
f 10/158/3 13/159/6 1/160/1
f 7/161/130 2/13/7 12/15/9
f 8/162/126 7/161/130 77/163/131
f 9/2/2 8/162/126 78/164/132
f 7/161/130 12/15/9 77/163/131
f 77/163/131 12/15/9 11/125/101
f 8/162/126 77/163/131 78/164/132
f 78/164/132 77/163/131 79/165/133
f 77/163/131 11/125/101 79/165/133
f 79/165/133 11/125/101 776/127/103 800/166/134
f 9/2/2 78/164/132 10/3/3
f 10/3/3 78/164/132 796/167/135 795/168/136
f 78/164/132 79/165/133 797/169/137 796/167/135
f 79/165/133 800/166/134 799/170/138
s 0
f 127/171/139 124/172/139 153/173/139 152/174/139
f 87/175/140 83/176/140 138/176/140 137/175/140
f 119/177/141 81/178/141 85/179/141 116/180/141
f 126/181/142 125/182/142 83/176/142 87/175/142
f 125/182/143 798/183/143 799/184/143 800/185/143 776/186/143 774/187/143 775/188/143 83/176/143
f 123/189/144 122/190/144 120/191/144 121/192/144
f 91/176/145 90/174/145 89/193/145 88/194/145
f 156/174/146 157/173/146 89/173/146 90/174/146
f 89/173/147 157/173/147 88/195/147
f 105/196/148 88/195/148 157/197/148
f 107/175/149 104/176/149 114/176/149 115/175/149
f 97/198/150 87/195/150 137/195/150 136/195/150
f 91/176/151 88/194/151 94/194/151 95/176/151
f 102/176/152 91/176/152 95/176/152 104/176/152
f 83/176/153 96/199/153 139/176/153 138/176/153
f 105/196/154 97/198/154 136/195/154 107/195/154
f 137/175/155 138/176/155 142/176/155 141/175/155
f 153/197/148 745/200/148 744/201/148 743/202/148 746/203/148 718/204/148 719/205/148 720/206/148 726/207/148 155/208/148
f 83/176/156 775/188/156 755/209/156 756/210/156 758/211/156 757/212/156 748/213/156 749/214/156 96/199/156
f 82/215/146 86/216/146 98/217/146 99/218/146
f 88/195/157 105/196/157 107/195/157 94/195/157
f 96/199/158 102/176/158 104/176/158 139/176/158
f 136/175/159 139/176/159 104/176/159 107/175/159
f 155/208/148 726/207/148 724/219/148 725/220/148 727/221/148 728/222/148 734/223/148 733/224/148 735/225/148 753/226/148 752/227/148 751/228/148 97/198/148 105/196/148 157/197/148
f 96/199/156 749/214/156 747/229/156 736/230/156 730/231/156 731/232/156 732/233/156 729/234/156 722/235/156 721/236/156 723/237/156 154/174/156 156/174/156 102/176/156
f 99/218/160 98/217/160 103/238/160 106/239/160
f 141/175/161 142/176/161 143/176/161 140/175/161
f 139/176/162 136/175/162 140/175/162 143/176/162
f 101/195/163 92/196/163 93/199/163 100/240/163
f 101/195/164 100/240/164 111/240/164 110/195/164
f 115/175/165 114/176/165 113/176/165 112/175/165
f 104/176/156 95/176/156 113/176/156 114/176/156
f 94/195/148 107/195/148 115/195/148 112/195/148
f 95/176/166 94/194/166 112/194/166 113/176/166
f 119/177/167 116/180/167 118/241/167 117/242/167
f 123/243/168 121/192/168 125/182/168 126/181/168
f 87/195/169 777/244/169 778/245/169 779/246/169 805/247/169 804/248/169 801/249/169 802/250/169 126/251/169
f 120/191/170 122/252/170 124/172/170 127/171/170
f 128/253/156 129/254/156 121/192/156 120/191/156
f 131/255/148 130/256/148 122/190/148 123/189/148
f 130/256/148 132/257/148 124/258/148 122/190/148
f 129/254/156 133/259/156 125/182/156 121/192/156
f 134/260/148 131/255/148 123/189/148 126/251/148
f 135/261/156 128/253/156 120/191/156 127/171/156
f 133/259/156 135/261/156 127/171/156 760/262/156 759/263/156 767/264/156 772/265/156 780/266/156 783/267/156 784/268/156 785/269/156 789/270/156 788/271/156 792/272/156 795/273/156 796/274/156 797/275/156 798/183/156 125/182/156
f 132/257/148 134/260/148 126/251/148 802/250/148 803/276/148 794/277/148 793/278/148 790/279/148 791/280/148 787/281/148 786/282/148 781/283/148 782/284/148 773/285/148 771/286/148 768/287/148 769/288/148 770/289/148 124/258/148
f 80/290/171 81/178/171 129/254/171 128/253/171
f 85/179/172 84/291/172 130/256/172 131/255/172
f 84/291/173 118/241/173 132/257/173 130/256/173
f 81/178/174 119/177/174 133/259/174 129/254/174
f 116/180/175 85/179/175 131/255/175 134/260/175
f 117/242/176 80/290/176 128/253/176 135/261/176
f 119/177/177 117/242/177 135/261/177 133/259/177
f 118/241/178 116/180/178 134/260/178 132/257/178
f 81/178/179 80/290/179 84/291/179 85/179/179
f 118/241/180 84/291/180 80/290/180 117/242/180
f 91/176/181 156/174/181 90/174/181
f 102/176/156 156/174/156 91/176/156
f 145/292/182 144/292/182 136/195/182 137/195/182
f 147/240/183 146/199/183 138/176/183 139/176/183
f 148/195/184 149/195/184 141/195/184 140/195/184
f 150/176/185 151/240/185 143/176/185 142/176/185
f 146/199/186 150/176/186 142/176/186 138/176/186
f 149/195/187 145/292/187 137/195/187 141/195/187
f 144/292/188 148/195/188 140/195/188 136/195/188
f 151/240/189 147/240/189 139/176/189 143/176/189
f 92/196/190 101/195/190 144/292/190 145/292/190
f 100/240/191 93/199/191 146/199/191 147/240/191
f 110/195/192 108/195/192 149/195/192 148/195/192
f 109/176/193 111/240/193 151/240/193 150/176/193
f 93/199/194 109/176/194 150/176/194 146/199/194
f 108/195/195 92/196/195 145/292/195 149/195/195
f 101/195/196 110/195/196 148/195/196 144/292/196
f 111/240/197 100/240/197 147/240/197 151/240/197
f 93/199/198 92/196/198 108/195/198 109/176/198
f 110/195/199 111/240/199 109/176/199 108/195/199
f 86/216/200 82/215/200 152/174/200 153/173/200
f 82/215/201 99/218/201 154/174/201 152/174/201
f 98/217/202 86/216/202 153/173/202 155/173/202
f 99/218/201 106/239/201 156/174/201 154/174/201
f 103/238/202 98/217/202 155/173/202 157/173/202
f 106/239/203 103/238/203 157/173/203 156/174/203
s 1
f 286/293/1 159/294/1 161/295/204 287/296/204
f 287/296/204 161/295/204 163/297/205 288/298/205
f 288/298/205 163/297/205 165/299/206 289/300/206
f 289/300/206 165/299/206 167/301/207 290/302/207
f 290/302/207 167/301/207 169/303/208 291/304/208
f 291/304/208 169/303/208 171/305/209 292/306/209
f 292/306/209 171/305/209 173/307/210 293/308/210
f 293/308/210 173/307/210 175/309/211 294/252/211
f 294/252/211 175/309/211 177/310/212 295/311/212
f 295/311/212 177/310/212 179/312/213 296/313/213
f 296/313/213 179/312/213 181/314/214 297/315/214
f 297/315/214 181/314/214 183/316/215 298/317/215
f 298/317/215 183/316/215 185/318/216 299/319/216
f 299/319/216 185/318/216 187/320/217 300/321/217
f 300/321/217 187/320/217 189/322/218 301/323/218
f 301/323/218 189/322/218 191/324/156 302/325/156
f 302/325/156 191/324/156 193/326/219 303/327/219
f 303/327/219 193/326/219 195/328/220 304/329/220
f 304/329/220 195/328/220 197/330/221 305/331/221
f 305/331/221 197/330/221 199/332/222 306/333/222
f 306/333/222 199/332/222 201/334/223 307/335/223
f 307/335/223 201/334/223 203/336/224 308/337/224
f 308/337/224 203/336/224 205/338/225 309/339/225
f 309/339/225 205/338/225 207/193/226 310/191/226
f 310/191/226 207/193/226 209/340/227 311/341/227
f 311/341/227 209/340/227 211/342/228 312/343/228
f 312/343/228 211/342/228 213/344/229 313/345/229
f 313/345/229 213/344/229 215/346/230 314/347/230
f 314/347/230 215/346/230 217/348/231 315/349/231
f 315/349/231 217/348/231 219/350/232 316/351/232
f 316/351/232 219/350/232 221/352/233 317/353/233
f 317/353/233 221/352/233 223/354/23 318/355/23
f 318/355/23 223/354/23 225/356/234 319/357/234
f 319/357/234 225/356/234 227/358/235 320/359/235
f 320/359/235 227/358/235 229/360/236 321/361/236
f 321/361/236 229/360/236 231/362/237 322/363/237
f 322/363/237 231/362/237 233/364/238 323/365/238
f 323/365/238 233/364/238 235/366/239 324/367/239
f 324/367/239 235/366/239 237/368/240 325/369/240
f 325/369/240 237/368/240 239/194/241 326/192/241
f 326/192/241 239/194/241 241/370/242 327/371/242
f 327/371/242 241/370/242 243/372/243 328/373/243
f 328/373/243 243/372/243 245/374/244 329/375/244
f 329/375/244 245/374/244 247/376/245 330/377/245
f 330/377/245 247/376/245 249/378/246 331/379/246
f 331/379/246 249/378/246 251/380/247 332/381/247
f 332/381/247 251/380/247 253/382/248 333/383/248
f 333/383/248 253/382/248 255/384/148 334/385/148
f 334/385/148 255/384/148 257/386/249 335/387/249
f 335/387/249 257/386/249 259/388/250 336/389/250
f 336/389/250 259/388/250 261/390/251 337/391/251
f 337/391/251 261/390/251 263/392/252 338/393/252
f 338/393/252 263/392/252 265/394/253 339/395/253
f 339/395/253 265/394/253 267/396/254 340/397/254
f 340/397/254 267/396/254 269/398/255 341/399/255
f 341/399/255 269/398/255 271/400/256 342/243/256
f 342/243/256 271/400/256 273/401/257 343/402/257
f 343/402/257 273/401/257 275/403/258 344/404/258
f 344/404/258 275/403/258 277/405/259 345/406/259
f 345/406/259 277/405/259 279/407/260 346/408/260
f 346/408/260 279/407/260 281/409/261 347/410/261
f 347/410/261 281/409/261 283/411/262 348/412/262
f 161/413/68 159/414/68 285/415/68 283/416/68 281/417/68 279/418/68 277/419/68 275/420/68 273/421/68 271/422/68 269/423/68 267/424/68 265/425/68 263/426/68 261/427/68 259/428/68 257/429/68 255/430/68 253/431/68 251/432/68 249/433/68 247/434/68 245/435/68 243/436/68 241/437/68 239/438/68 237/439/68 235/440/68 233/441/68 231/442/68 229/443/68 227/444/68 225/445/68 223/446/68 221/447/68 219/448/68 217/449/68 215/450/68 213/451/68 211/452/68 209/453/68 207/454/68 205/455/68 203/456/68 201/457/68 199/458/68 197/459/68 195/460/68 193/461/68 191/462/68 189/463/68 187/464/68 185/465/68 183/466/68 181/467/68 179/468/68 177/469/68 175/470/68 173/471/68 171/472/68 169/473/68 167/474/68 165/475/68 163/476/68
f 348/412/262 283/411/262 285/477/263 349/478/263
f 349/478/263 285/477/263 159/479/1 286/480/1
f 254/481/156 256/482/219 591/482/219 590/481/156
f 351/483/83 350/484/83 286/485/83 287/486/83
f 352/487/83 351/483/83 287/486/83 288/488/83
f 353/489/83 352/487/83 288/488/83 289/490/83
f 354/491/83 353/489/83 289/490/83 290/492/83
f 355/493/83 354/491/83 290/492/83 291/494/83
f 356/495/83 355/493/83 291/494/83 292/496/83
f 357/497/83 356/495/83 292/496/83 293/498/83
f 358/499/83 357/497/83 293/498/83 294/500/83
f 359/501/83 358/499/83 294/500/83 295/502/83
f 360/503/83 359/501/83 295/502/83 296/504/83
f 361/505/83 360/503/83 296/504/83 297/506/83
f 362/507/83 361/505/83 297/506/83 298/508/83
f 363/509/83 362/507/83 298/508/83 299/510/83
f 364/511/83 363/509/83 299/510/83 300/512/83
f 365/513/83 364/511/83 300/512/83 301/514/83
f 366/515/83 365/513/83 301/514/83 302/516/83
f 367/517/83 366/515/83 302/516/83 303/518/83
f 368/519/83 367/517/83 303/518/83 304/520/83
f 369/521/83 368/519/83 304/520/83 305/522/83
f 370/523/83 369/521/83 305/522/83 306/524/83
f 371/525/83 370/523/83 306/524/83 307/526/83
f 372/527/83 371/525/83 307/526/83 308/528/83
f 373/529/83 372/527/83 308/528/83 309/530/83
f 374/531/83 373/529/83 309/530/83 310/532/83
f 375/533/83 374/531/83 310/532/83 311/534/83
f 376/535/83 375/533/83 311/534/83 312/536/83
f 377/537/83 376/535/83 312/536/83 313/538/83
f 378/539/83 377/537/83 313/538/83 314/540/83
f 379/541/83 378/539/83 314/540/83 315/542/83
f 380/543/83 379/541/83 315/542/83 316/544/83
f 381/545/83 380/543/83 316/544/83 317/546/83
f 382/547/83 381/545/83 317/546/83 318/548/83
f 383/549/83 382/547/83 318/548/83 319/550/83
f 384/551/83 383/549/83 319/550/83 320/552/83
f 385/553/83 384/551/83 320/552/83 321/554/83
f 386/555/83 385/553/83 321/554/83 322/556/83
f 387/557/83 386/555/83 322/556/83 323/558/83
f 388/559/83 387/557/83 323/558/83 324/560/83
f 389/561/83 388/559/83 324/560/83 325/562/83
f 390/563/83 389/561/83 325/562/83 326/564/83
f 391/565/83 390/563/83 326/564/83 327/566/83
f 392/567/83 391/565/83 327/566/83 328/568/83
f 393/569/83 392/567/83 328/568/83 329/570/83
f 394/571/83 393/569/83 329/570/83 330/572/83
f 395/573/83 394/571/83 330/572/83 331/574/83
f 396/575/83 395/573/83 331/574/83 332/576/83
f 397/577/83 396/575/83 332/576/83 333/578/83
f 398/579/83 397/577/83 333/578/83 334/580/83
f 399/581/83 398/579/83 334/580/83 335/582/83
f 400/583/83 399/581/83 335/582/83 336/584/83
f 401/585/83 400/583/83 336/584/83 337/586/83
f 402/587/83 401/585/83 337/586/83 338/588/83
f 403/589/83 402/587/83 338/588/83 339/590/83
f 404/591/83 403/589/83 339/590/83 340/592/83
f 405/593/83 404/591/83 340/592/83 341/594/83
f 406/595/83 405/593/83 341/594/83 342/596/83
f 407/597/83 406/595/83 342/596/83 343/598/83
f 408/599/83 407/597/83 343/598/83 344/600/83
f 409/601/83 408/599/83 344/600/83 345/602/83
f 410/603/83 409/601/83 345/602/83 346/604/83
f 411/605/83 410/603/83 346/604/83 347/606/83
f 412/607/83 411/605/83 347/606/83 348/608/83
f 413/609/83 412/607/83 348/608/83 349/610/83
f 350/484/83 413/609/83 349/610/83 286/485/83
f 415/611/264 414/612/265 350/484/265 351/483/264
f 416/613/266 415/611/264 351/483/264 352/487/266
f 417/614/267 416/613/266 352/487/266 353/489/267
f 418/615/268 417/614/267 353/489/267 354/491/268
f 419/616/269 418/615/268 354/491/268 355/493/269
f 420/617/270 419/616/269 355/493/269 356/495/270
f 421/618/271 420/617/270 356/495/270 357/497/271
f 422/619/272 421/618/271 357/497/271 358/499/272
f 423/620/273 422/619/272 358/499/272 359/501/273
f 424/621/274 423/620/273 359/501/273 360/503/274
f 425/622/275 424/621/274 360/503/274 361/505/275
f 426/623/276 425/622/275 361/505/275 362/507/276
f 427/624/277 426/623/276 362/507/276 363/509/277
f 428/625/278 427/624/277 363/509/277 364/511/278
f 429/626/279 428/625/278 364/511/278 365/513/279
f 430/627/280 429/626/279 365/513/279 366/515/280
f 431/628/281 430/627/280 366/515/280 367/517/281
f 432/629/282 431/628/281 367/517/281 368/519/282
f 433/630/283 432/629/282 368/519/282 369/521/283
f 434/631/284 433/630/283 369/521/283 370/523/284
f 435/632/285 434/631/284 370/523/284 371/525/285
f 436/633/286 435/632/285 371/525/285 372/527/286
f 437/634/287 436/633/286 372/527/286 373/529/287
f 438/635/288 437/634/287 373/529/287 374/531/288
f 439/636/289 438/635/288 374/531/288 375/533/289
f 440/637/290 439/636/289 375/533/289 376/535/290
f 441/638/291 440/637/290 376/535/290 377/537/291
f 442/639/292 441/638/291 377/537/291 378/539/292
f 443/640/293 442/639/292 378/539/292 379/541/293
f 444/641/294 443/640/293 379/541/293 380/543/294
f 445/642/295 444/641/294 380/543/294 381/545/295
f 446/643/296 445/642/295 381/545/295 382/547/296
f 447/644/297 446/643/296 382/547/296 383/549/297
f 448/645/298 447/644/297 383/549/297 384/551/298
f 449/646/299 448/645/298 384/551/298 385/553/299
f 450/647/300 449/646/299 385/553/299 386/555/300
f 451/648/301 450/647/300 386/555/300 387/557/301
f 452/649/302 451/648/301 387/557/301 388/559/302
f 453/650/303 452/649/302 388/559/302 389/561/303
f 454/651/304 453/650/303 389/561/303 390/563/304
f 455/652/305 454/651/304 390/563/304 391/565/305
f 456/653/306 455/652/305 391/565/305 392/567/306
f 457/654/307 456/653/306 392/567/306 393/569/307
f 458/655/308 457/654/307 393/569/307 394/571/308
f 459/656/309 458/655/308 394/571/308 395/573/309
f 460/657/310 459/656/309 395/573/309 396/575/310
f 461/658/311 460/657/310 396/575/310 397/577/311
f 462/659/312 461/658/311 397/577/311 398/579/312
f 463/660/313 462/659/312 398/579/312 399/581/313
f 464/661/314 463/660/313 399/581/313 400/583/314
f 465/662/315 464/661/314 400/583/314 401/585/315
f 466/663/316 465/662/315 401/585/315 402/587/316
f 467/664/317 466/663/316 402/587/316 403/589/317
f 468/665/318 467/664/317 403/589/317 404/591/318
f 469/666/319 468/665/318 404/591/318 405/593/319
f 470/667/320 469/666/319 405/593/319 406/595/320
f 471/668/321 470/667/320 406/595/320 407/597/321
f 472/669/322 471/668/321 407/597/321 408/599/322
f 473/670/323 472/669/322 408/599/322 409/601/323
f 474/671/324 473/670/323 409/601/323 410/603/324
f 475/672/325 474/671/324 410/603/324 411/605/325
f 476/673/326 475/672/325 411/605/325 412/607/326
f 477/674/327 476/673/326 412/607/326 413/609/327
f 414/612/265 477/674/327 413/609/327 350/484/265
f 479/675/328 478/676/329 414/612/329 415/611/328
f 480/677/330 479/675/328 415/611/328 416/613/330
f 481/678/331 480/677/330 416/613/330 417/614/331
f 482/679/332 481/678/331 417/614/331 418/615/332
f 483/680/333 482/679/332 418/615/332 419/616/333
f 484/681/334 483/680/333 419/616/333 420/617/334
f 485/682/335 484/681/334 420/617/334 421/618/335
f 486/683/336 485/682/335 421/618/335 422/619/336
f 487/684/337 486/683/336 422/619/336 423/620/337
f 488/685/338 487/684/337 423/620/337 424/621/338
f 489/686/339 488/685/338 424/621/338 425/622/339
f 490/687/340 489/686/339 425/622/339 426/623/340
f 491/688/341 490/687/340 426/623/340 427/624/341
f 492/689/342 491/688/341 427/624/341 428/625/342
f 493/690/343 492/689/342 428/625/342 429/626/343
f 494/691/344 493/690/343 429/626/343 430/627/344
f 495/692/345 494/691/344 430/627/344 431/628/345
f 496/693/346 495/692/345 431/628/345 432/629/346
f 497/694/347 496/693/346 432/629/346 433/630/347
f 498/695/348 497/694/347 433/630/347 434/631/348
f 499/696/349 498/695/348 434/631/348 435/632/349
f 500/697/350 499/696/349 435/632/349 436/633/350
f 501/698/351 500/697/350 436/633/350 437/634/351
f 502/699/352 501/698/351 437/634/351 438/635/352
f 503/700/353 502/699/352 438/635/352 439/636/353
f 504/701/354 503/700/353 439/636/353 440/637/354
f 505/702/355 504/701/354 440/637/354 441/638/355
f 506/703/356 505/702/355 441/638/355 442/639/356
f 507/704/357 506/703/356 442/639/356 443/640/357
f 508/705/358 507/704/357 443/640/357 444/641/358
f 509/706/359 508/705/358 444/641/358 445/642/359
f 510/707/360 509/706/359 445/642/359 446/643/360
f 511/708/361 510/707/360 446/643/360 447/644/361
f 512/709/362 511/708/361 447/644/361 448/645/362
f 513/710/363 512/709/362 448/645/362 449/646/363
f 514/711/364 513/710/363 449/646/363 450/647/364
f 515/712/365 514/711/364 450/647/364 451/648/365
f 516/713/366 515/712/365 451/648/365 452/649/366
f 517/714/367 516/713/366 452/649/366 453/650/367
f 518/715/368 517/714/367 453/650/367 454/651/368
f 519/716/369 518/715/368 454/651/368 455/652/369
f 520/717/370 519/716/369 455/652/369 456/653/370
f 521/718/371 520/717/370 456/653/370 457/654/371
f 522/719/372 521/718/371 457/654/371 458/655/372
f 523/720/373 522/719/372 458/655/372 459/656/373
f 524/721/374 523/720/373 459/656/373 460/657/374
f 525/722/375 524/721/374 460/657/374 461/658/375
f 526/723/376 525/722/375 461/658/375 462/659/376
f 527/724/377 526/723/376 462/659/376 463/660/377
f 528/725/378 527/724/377 463/660/377 464/661/378
f 529/726/379 528/725/378 464/661/378 465/662/379
f 530/727/380 529/726/379 465/662/379 466/663/380
f 531/728/381 530/727/380 466/663/380 467/664/381
f 532/729/382 531/728/381 467/664/381 468/665/382
f 533/730/383 532/729/382 468/665/382 469/666/383
f 534/731/384 533/730/383 469/666/383 470/667/384
f 535/732/385 534/731/384 470/667/384 471/668/385
f 536/733/386 535/732/385 471/668/385 472/669/386
f 537/734/387 536/733/386 472/669/386 473/670/387
f 538/735/388 537/734/387 473/670/387 474/671/388
f 539/736/389 538/735/388 474/671/388 475/672/389
f 540/737/390 539/736/389 475/672/389 476/673/390
f 541/738/391 540/737/390 476/673/390 477/674/391
f 478/676/329 541/738/391 477/674/391 414/612/329
f 160/739/83 158/740/83 478/676/83 479/675/83
f 162/741/83 160/739/83 479/675/83 480/677/83
f 164/742/83 162/741/83 480/677/83 481/678/83
f 166/743/83 164/742/83 481/678/83 482/679/83
f 168/744/83 166/743/83 482/679/83 483/680/83
f 170/745/83 168/744/83 483/680/83 484/681/83
f 172/746/83 170/745/83 484/681/83 485/682/83
f 174/747/83 172/746/83 485/682/83 486/683/83
f 176/748/83 174/747/83 486/683/83 487/684/83
f 178/749/83 176/748/83 487/684/83 488/685/83
f 180/750/83 178/749/83 488/685/83 489/686/83
f 182/751/83 180/750/83 489/686/83 490/687/83
f 184/752/83 182/751/83 490/687/83 491/688/83
f 186/753/83 184/752/83 491/688/83 492/689/83
f 188/754/83 186/753/83 492/689/83 493/690/83
f 190/755/83 188/754/83 493/690/83 494/691/83
f 192/756/83 190/755/83 494/691/83 495/692/83
f 194/757/83 192/756/83 495/692/83 496/693/83
f 196/758/83 194/757/83 496/693/83 497/694/83
f 198/759/83 196/758/83 497/694/83 498/695/83
f 200/760/83 198/759/83 498/695/83 499/696/83
f 202/761/83 200/760/83 499/696/83 500/697/83
f 204/762/83 202/761/83 500/697/83 501/698/83
f 206/763/83 204/762/83 501/698/83 502/699/83
f 208/764/83 206/763/83 502/699/83 503/700/83
f 210/765/83 208/764/83 503/700/83 504/701/83
f 212/766/83 210/765/83 504/701/83 505/702/83
f 214/767/83 212/766/83 505/702/83 506/703/83
f 216/768/83 214/767/83 506/703/83 507/704/83
f 218/769/83 216/768/83 507/704/83 508/705/83
f 220/770/83 218/769/83 508/705/83 509/706/83
f 222/771/83 220/770/83 509/706/83 510/707/83
f 224/772/83 222/771/83 510/707/83 511/708/83
f 226/773/83 224/772/83 511/708/83 512/709/83
f 228/774/83 226/773/83 512/709/83 513/710/83
f 230/775/83 228/774/83 513/710/83 514/711/83
f 232/776/83 230/775/83 514/711/83 515/712/83
f 234/777/83 232/776/83 515/712/83 516/713/83
f 236/778/83 234/777/83 516/713/83 517/714/83
f 238/779/83 236/778/83 517/714/83 518/715/83
f 240/780/83 238/779/83 518/715/83 519/716/83
f 242/781/83 240/780/83 519/716/83 520/717/83
f 244/782/83 242/781/83 520/717/83 521/718/83
f 246/783/83 244/782/83 521/718/83 522/719/83
f 248/784/83 246/783/83 522/719/83 523/720/83
f 250/785/83 248/784/83 523/720/83 524/721/83
f 252/786/83 250/785/83 524/721/83 525/722/83
f 254/481/83 252/786/83 525/722/83 526/723/83
f 256/482/83 254/481/83 526/723/83 527/724/83
f 258/787/83 256/482/83 527/724/83 528/725/83
f 260/788/83 258/787/83 528/725/83 529/726/83
f 262/789/83 260/788/83 529/726/83 530/727/83
f 264/790/83 262/789/83 530/727/83 531/728/83
f 266/791/83 264/790/83 531/728/83 532/729/83
f 268/792/83 266/791/83 532/729/83 533/730/83
f 270/793/83 268/792/83 533/730/83 534/731/83
f 272/794/83 270/793/83 534/731/83 535/732/83
f 274/795/83 272/794/83 535/732/83 536/733/83
f 276/796/83 274/795/83 536/733/83 537/734/83
f 278/797/83 276/796/83 537/734/83 538/735/83
f 280/798/83 278/797/83 538/735/83 539/736/83
f 282/799/83 280/798/83 539/736/83 540/737/83
f 284/800/83 282/799/83 540/737/83 541/738/83
f 158/740/83 284/800/83 541/738/83 478/676/83
f 542/740/83 543/739/83 544/741/83 545/742/83 546/743/83 547/744/83 548/745/83 549/746/83 550/747/83 551/748/83 552/749/83 553/750/83 554/751/83 555/752/83 556/753/83 557/754/83 558/755/83 559/756/83 560/757/83 561/758/83 562/759/83 563/760/83 564/761/83 565/762/83 566/763/83 567/764/83 568/765/83 569/766/83 570/767/83 571/768/83 572/769/83 573/770/83 574/771/83 575/772/83 576/773/83 577/774/83 578/775/83 579/776/83 580/777/83 581/778/83 582/779/83 583/780/83 584/781/83 585/782/83 586/783/83 587/784/83 588/785/83 589/786/83 590/481/83 591/482/83 592/787/83 593/788/83 594/789/83 595/790/83 596/791/83 597/792/83 598/793/83 599/794/83 600/795/83 601/796/83 602/797/83 603/798/83 604/799/83 605/800/83
f 202/761/254 204/762/255 565/762/255 564/761/254
f 256/482/219 258/787/220 592/787/220 591/482/219
f 204/762/255 206/763/256 566/763/256 565/762/255
f 258/787/220 260/788/221 593/788/221 592/787/220
f 206/763/256 208/764/257 567/764/257 566/763/256
f 260/788/221 262/789/222 594/789/222 593/788/221
f 208/764/257 210/765/258 568/765/258 567/764/257
f 262/789/222 264/790/223 595/790/223 594/789/222
f 210/765/258 212/766/259 569/766/259 568/765/258
f 158/740/23 160/739/234 543/739/234 542/740/23
f 264/790/223 266/791/224 596/791/224 595/790/223
f 212/766/259 214/767/260 570/767/260 569/766/259
f 160/739/234 162/741/235 544/741/235 543/739/234
f 266/791/224 268/792/225 597/792/225 596/791/224
f 214/767/260 216/768/261 571/768/261 570/767/260
f 162/741/235 164/742/236 545/742/236 544/741/235
f 268/792/225 270/793/226 598/793/226 597/792/225
f 216/768/261 218/769/262 572/769/262 571/768/261
f 164/742/236 166/743/237 546/743/237 545/742/236
f 270/793/226 272/794/227 599/794/227 598/793/226
f 218/769/262 220/770/263 573/770/263 572/769/262
f 166/743/237 168/744/238 547/744/238 546/743/237
f 272/794/227 274/795/228 600/795/228 599/794/227
f 220/770/263 222/771/1 574/771/1 573/770/263
f 168/744/238 170/745/239 548/745/239 547/744/238
f 274/795/228 276/796/229 601/796/229 600/795/228
f 222/771/1 224/772/204 575/772/204 574/771/1
f 170/745/239 172/746/240 549/746/240 548/745/239
f 276/796/229 278/797/230 602/797/230 601/796/229
f 224/772/204 226/773/205 576/773/205 575/772/204
f 172/746/240 174/747/241 550/747/241 549/746/240
f 278/797/230 280/798/231 603/798/231 602/797/230
f 226/773/205 228/774/206 577/774/206 576/773/205
f 174/747/241 176/748/242 551/748/242 550/747/241
f 280/798/231 282/799/232 604/799/232 603/798/231
f 228/774/206 230/775/207 578/775/207 577/774/206
f 176/748/242 178/749/243 552/749/243 551/748/242
f 282/799/232 284/800/233 605/800/233 604/799/232
f 230/775/207 232/776/208 579/776/208 578/775/207
f 178/749/243 180/750/244 553/750/244 552/749/243
f 284/800/233 158/740/23 542/740/23 605/800/233
f 232/776/208 234/777/209 580/777/209 579/776/208
f 180/750/244 182/751/245 554/751/245 553/750/244
f 234/777/209 236/778/210 581/778/210 580/777/209
f 182/751/245 184/752/246 555/752/246 554/751/245
f 236/778/210 238/779/211 582/779/211 581/778/210
f 184/752/246 186/753/247 556/753/247 555/752/246
f 238/779/211 240/780/212 583/780/212 582/779/211
f 186/753/247 188/754/248 557/754/248 556/753/247
f 240/780/212 242/781/213 584/781/213 583/780/212
f 188/754/248 190/755/148 558/755/148 557/754/248
f 242/781/213 244/782/214 585/782/214 584/781/213
f 190/755/148 192/756/249 559/756/249 558/755/148
f 244/782/214 246/783/215 586/783/215 585/782/214
f 192/756/249 194/757/250 560/757/250 559/756/249
f 246/783/215 248/784/216 587/784/216 586/783/215
f 194/757/250 196/758/251 561/758/251 560/757/250
f 248/784/216 250/785/217 588/785/217 587/784/216
f 196/758/251 198/759/252 562/759/252 561/758/251
f 250/785/217 252/786/218 589/786/218 588/785/217
f 198/759/252 200/760/253 563/760/253 562/759/252
f 252/786/218 254/481/156 590/481/156 589/786/218
f 200/760/253 202/761/254 564/761/254 563/760/253
s 0
f 607/197/148 606/195/148 608/189/148 609/190/148
f 609/190/392 608/189/392 612/192/392 613/191/392
f 613/191/156 612/192/156 610/176/156 611/174/156
f 611/174/393 610/176/393 606/194/393 607/193/393
f 612/192/394 608/243/394 606/175/394 610/176/394
f 609/252/395 613/191/395 611/174/395 607/173/395
f 630/801/148 615/197/148 617/190/148 631/802/148
f 637/803/396 625/804/396 621/191/396 632/805/396
f 632/805/156 621/191/156 619/174/156 633/806/156
f 635/807/397 629/808/397 615/193/397 630/809/397
f 626/810/397 614/194/397 639/194/397 645/810/397
f 624/811/398 617/252/398 615/173/398 629/812/398
f 621/191/398 625/813/398 628/814/398 619/174/398
f 625/813/398 624/811/398 629/812/398 628/814/398
f 620/192/399 618/176/399 641/176/399 642/192/399
f 637/803/400 634/815/400 635/807/400 636/816/400
f 633/806/397 619/174/397 628/817/397 634/815/397
f 634/815/397 628/817/397 629/808/397 635/807/397
f 631/802/396 617/190/396 624/818/396 636/816/396
f 636/816/396 624/818/396 625/804/396 637/803/396
f 634/815/148 637/803/148 622/819/148 627/820/148
f 616/189/396 631/802/396 636/816/396 623/821/396
f 635/807/156 626/810/156 623/822/156 636/816/156
f 618/176/397 633/806/397 634/815/397 627/820/397
f 626/810/397 635/807/397 630/809/397 614/194/397
f 620/192/156 632/805/156 633/806/156 618/176/156
f 622/823/396 637/803/396 632/805/396 620/192/396
f 614/195/148 630/801/148 631/802/148 616/189/148
f 644/819/400 642/192/400 641/176/400 643/824/400
f 638/243/400 640/822/400 645/825/400 639/175/400
f 627/820/401 622/819/401 644/819/401 643/820/401
f 622/823/396 620/192/396 642/192/396 644/823/396
f 618/176/397 627/820/397 643/820/397 641/176/397
f 616/189/396 623/821/396 640/821/396 638/189/396
f 623/822/402 626/810/402 645/810/402 640/822/402
f 614/195/403 616/189/403 638/189/403 639/195/403
f 646/195/404 647/197/404 649/190/404 648/189/404
f 654/823/405 657/804/405 653/191/405 652/192/405
f 652/192/406 653/191/406 651/174/406 650/176/406
f 654/819/407 652/192/407 650/176/407 659/824/407
f 656/811/408 649/252/408 647/173/408 661/812/408
f 653/191/409 657/813/409 660/814/409 651/174/409
f 648/243/410 655/822/410 658/825/410 646/175/410
f 648/189/411 649/190/411 656/818/411 655/821/411
f 661/808/412 658/810/412 655/822/412 656/818/412
f 660/817/413 657/804/413 654/819/413 659/820/413
f 664/174/414 669/814/414 677/814/414 674/174/414
f 668/810/415 667/808/415 670/808/415 676/810/415
f 667/808/411 668/810/411 662/175/411 663/197/411
f 666/820/405 669/817/405 664/174/405 665/176/405
f 669/817/416 666/820/416 672/820/416 677/817/416
f 663/197/417 662/195/417 675/195/417 671/197/417
f 662/175/418 668/825/418 676/825/418 675/175/418
f 665/176/419 664/174/419 674/174/419 673/176/419
f 666/824/420 665/176/420 673/176/420 672/824/420
f 667/812/421 663/173/421 671/173/421 670/812/421
f 683/175/422 684/825/422 692/825/422 691/175/422
f 685/817/423 680/820/423 688/820/423 693/817/423
f 680/820/405 685/817/405 682/174/405 681/176/405
f 678/808/411 684/810/411 683/175/411 679/197/411
f 672/820/424 673/176/424 674/174/424 677/817/424
f 670/808/425 671/197/425 675/175/425 676/810/425
f 646/175/425 658/825/425 661/808/425 647/173/425
f 650/176/424 651/174/424 660/817/424 659/824/424
f 692/810/425 686/808/425 687/193/425 691/194/425
f 689/176/424 690/174/424 693/817/424 688/820/424
f 681/176/426 682/174/426 690/174/426 689/176/426
f 678/812/427 679/173/427 687/173/427 686/812/427
f 684/810/428 678/808/428 686/808/428 692/810/428
f 682/174/429 685/814/429 693/814/429 690/174/429
f 679/197/430 683/195/430 691/195/430 687/197/430
f 680/824/431 681/176/431 689/176/431 688/824/431
s 1
f 706/826/148 695/197/148 697/190/148 707/827/148
f 707/827/432 697/190/433 701/191/433 708/347/432
f 708/347/156 701/191/156 699/174/156 709/828/156
f 709/828/434 699/174/434 695/193/434 706/829/434
f 696/243/435 700/192/435 698/176/435 694/175/435
f 701/191/436 697/252/436 695/173/436 699/174/436
f 712/830/434 705/831/434 702/832/434 713/833/434
f 711/363/156 704/355/156 705/831/156 712/830/156
f 710/834/437 703/835/438 704/355/438 711/363/437
f 713/836/148 702/837/148 703/835/148 710/834/148
f 705/831/434 709/828/434 706/829/434 702/832/434
f 704/355/156 708/347/156 709/828/156 705/831/156
f 703/835/438 707/827/432 708/347/432 704/355/438
f 702/837/148 706/826/148 707/827/148 703/835/148
f 694/195/148 713/836/148 710/834/148 696/189/148
f 696/189/439 710/834/437 711/363/437 700/192/439
f 700/192/156 711/363/156 712/830/156 698/176/156
f 698/176/434 712/830/434 713/833/434 694/194/434
f 750/838/440 64/103/81 763/839/441
f 733/840/442 57/70/54 33/73/56 735/841/443
f 757/120/96 24/107/85 748/110/88
f 784/842/444 72/132/108 73/131/107 785/130/106
f 715/843/445 51/37/31 37/39/32 714/844/446
f 747/108/86 30/24/18 736/87/65
f 714/844/446 37/39/32 739/845/447
f 739/845/447 37/39/32 26/88/66 740/846/448
f 792/847/449 10/158/3 795/848/136
f 722/849/450 41/31/25 721/36/30
f 738/96/74 63/93/71 744/99/77 745/850/451
f 740/846/448 26/88/66 741/851/452 742/852/453
f 789/853/105 13/159/6 788/854/454
f 729/85/63 41/82/25 722/855/450
f 788/854/454 13/159/6 10/158/3 792/847/449
f 735/841/443 33/73/56 753/856/455
f 720/857/38 46/57/36 724/61/48 726/858/456
f 797/169/137 79/165/133 799/170/138 798/859/457
s 0
f 770/289/458 762/860/458 737/861/458 738/862/458 745/200/458 153/197/458 124/258/458
s 1
f 780/133/109 72/132/108 783/863/459
f 754/864/460 67/111/89 761/865/461
f 734/866/462 44/67/46 57/70/54 733/840/442
s 0
f 751/228/148 750/867/148 763/868/148 766/869/148 764/870/148 765/871/148 777/244/148 87/195/148 97/198/148
f 742/872/463 741/873/463 754/874/463 761/875/463 760/262/463 127/171/463 152/174/463
s 1
f 779/876/464 15/115/93 805/877/465
f 763/839/441 64/103/81 65/102/80 766/101/79
f 728/62/49 44/59/46 734/878/462
f 741/851/452 26/88/66 67/111/89 754/864/460
f 753/856/455 33/73/56 752/879/466
f 762/94/72 62/92/70 737/97/75
f 767/880/467 20/113/91 772/134/110
f 717/34/28 50/32/26 51/37/31 716/881/468
f 778/882/469 15/115/93 779/876/464
f 716/881/468 51/37/31 715/843/445
f 759/883/470 68/112/90 20/113/91 767/880/467
f 752/879/466 33/73/56 64/103/81 750/838/440 751/884/471
f 794/151/124 76/150/123 793/149/122
f 761/865/461 67/111/89 68/112/90 759/883/470 760/885/472
s 0
f 723/237/156 717/886/156 716/887/156 715/888/156 714/889/156 739/890/156 740/891/156 742/872/156 152/174/156 154/174/156
s 1
f 764/892/78 25/116/13 765/893/473
f 743/98/76 34/51/41 746/53/43
f 765/893/473 25/116/13 15/115/93 778/882/469 777/894/474
f 805/877/465 15/115/93 7/157/130 804/156/129
f 783/863/459 72/132/108 784/842/444
f 725/60/47 55/58/45 727/63/50
o Barrel
v -0.326040 0.694419 -0.870090
v 0.326040 0.694419 -0.870090
v -0.326040 0.694419 -7.728437
v 0.326040 0.694419 -7.728437
v -0.326040 0.552309 -0.870090
v 0.326040 0.552309 -0.870090
v -0.326040 0.552309 -7.728437
v 0.326040 0.552309 -7.728437
v -0.196251 0.694419 -0.870090
v 0.196251 0.694419 -0.870090
v 0.196251 0.694419 -7.728437
v -0.196251 0.694419 -7.728437
v 0.196251 0.552309 -7.728437
v -0.196251 0.552309 -7.728437
v 0.196251 0.552309 -0.870090
v -0.196251 0.552309 -0.870090
v -0.290667 -0.010986 -0.870090
v -0.290667 1.257714 -0.870090
v -0.290667 -0.010986 -7.728437
v -0.290667 1.257714 -7.728437
v 0.290667 -0.010986 -0.870090
v 0.290667 1.257714 -0.870090
v 0.290667 -0.010986 -7.728437
v 0.290667 1.257714 -7.728437
v -0.290667 0.303282 -0.870090
v -0.290667 0.943446 -0.870090
v -0.290667 0.943446 -7.728437
v -0.290667 0.303282 -7.728437
v 0.290667 0.943446 -7.728437
v 0.290667 0.303282 -7.728437
v 0.290667 0.943446 -0.870090
v 0.290667 0.303282 -0.870090
vn -0.0000 1.0000 -0.0000
vn -0.0000 -0.0000 -1.0000
vn -0.0000 -1.0000 -0.0000
vn -0.0000 -0.0000 1.0000
vn -1.0000 -0.0000 -0.0000
vn 1.0000 -0.0000 -0.0000
vt 0.541667 0.000000
vt 0.625000 0.000000
vt 0.625000 0.250000
vt 0.541667 0.250000
vt 0.625000 0.500000
vt 0.541667 0.500000
vt 0.625000 0.750000
vt 0.541667 0.750000
vt 0.625000 1.000000
vt 0.541667 1.000000
vt 0.125000 0.500000
vt 0.375000 0.500000
vt 0.375000 0.750000
vt 0.125000 0.750000
vt 0.875000 0.500000
vt 0.875000 0.750000
vt 0.458333 0.750000
vt 0.458333 1.000000
vt 0.375000 1.000000
vt 0.458333 0.500000
vt 0.375000 0.250000
vt 0.458333 0.250000
vt 0.375000 0.000000
vt 0.458333 0.000000
s 0
f 815/895/475 807/896/475 809/897/475 816/898/475
f 816/898/476 809/897/476 813/899/476 818/900/476
f 818/900/477 813/899/477 811/901/477 820/902/477
f 820/902/478 811/901/478 807/903/478 815/904/478
f 808/905/479 812/906/479 810/907/479 806/908/479
f 813/899/480 809/909/480 807/910/480 811/901/480
f 810/907/478 821/911/478 814/912/478 806/913/478
f 812/906/477 819/914/477 821/911/477 810/907/477
f 808/915/476 817/916/476 819/914/476 812/906/476
f 820/902/479 815/895/479 816/898/479 818/900/479
f 806/917/475 814/918/475 817/916/475 808/915/475
f 821/911/480 819/914/480 817/916/480 814/918/480
f 831/895/479 823/896/479 825/897/479 832/898/479
f 832/898/476 825/897/476 829/899/476 834/900/476
f 834/900/480 829/899/480 827/901/480 836/902/480
f 836/902/478 827/901/478 823/903/478 831/904/478
f 824/905/477 828/906/477 826/907/477 822/908/477
f 829/899/475 825/909/475 823/910/475 827/901/475
f 826/907/478 837/911/478 830/912/478 822/913/478
f 828/906/480 835/914/480 837/911/480 826/907/480
f 824/915/476 833/916/476 835/914/476 828/906/476
f 836/902/477 831/895/477 832/898/477 834/900/477
f 822/917/479 830/918/479 833/916/479 824/915/479
f 837/911/475 835/914/475 833/916/475 830/918/475
o Rod
v -0.189656 0.433708 -0.903229
v -0.189656 0.813020 -0.903229
v -0.189656 0.433708 -5.791367
v -0.189656 0.813020 -5.791367
v 0.189656 0.433708 -0.903229
v 0.189656 0.813020 -0.903229
v 0.189656 0.433708 -5.791367
v 0.189656 0.813020 -5.791367
vn -1.0000 -0.0000 -0.0000
vn -0.0000 -0.0000 -1.0000
vn 1.0000 -0.0000 -0.0000
vn -0.0000 -0.0000 1.0000
vn -0.0000 -1.0000 -0.0000
vn -0.0000 1.0000 -0.0000
vt 0.375000 0.000000
vt 0.625000 0.000000
vt 0.625000 0.250000
vt 0.375000 0.250000
vt 0.625000 0.500000
vt 0.375000 0.500000
vt 0.625000 0.750000
vt 0.375000 0.750000
vt 0.625000 1.000000
vt 0.375000 1.000000
vt 0.125000 0.500000
vt 0.125000 0.750000
vt 0.875000 0.500000
vt 0.875000 0.750000
s 0
f 838/919/481 839/920/481 841/921/481 840/922/481
f 840/922/482 841/921/482 845/923/482 844/924/482
f 844/924/483 845/923/483 843/925/483 842/926/483
f 842/926/484 843/925/484 839/927/484 838/928/484
f 840/929/485 844/924/485 842/926/485 838/930/485
f 845/923/486 841/931/486 839/932/486 843/925/486
